<svg xmlns="http://www.w3.org/2000/svg" viewBox="0 0 60 60" x="0px" y="0px"><path d="M25.922,41.356l-2.647,2.035a2.876,2.876,0,0,1-3.551,0L16.616,41l-.951,1.914a3.98,3.98,0,0,0-.345,2.567L17.659,57.2a1,1,0,0,0,.981.8h4.744a1,1,0,0,0,.977-.79l2.4-11.2a4.115,4.115,0,0,0-.067-1.943Z"></path><path d="M27,34.6a1.194,1.194,0,0,0-.443-.947l-4.5-3.459a.893.893,0,0,0-1.113,0l-4.5,3.46A1.194,1.194,0,0,0,16,34.6v2.8a1.194,1.194,0,0,0,.443.947l4.5,3.459a.892.892,0,0,0,1.113,0l4.5-3.46A1.194,1.194,0,0,0,27,37.4Z"></path><path d="M38,7h1V4H33.858A3.939,3.939,0,0,1,34,5a3.959,3.959,0,0,1-.556,2Z"></path><path d="M37,20V9H23V20a1,1,0,0,0,1,1H36A1,1,0,0,0,37,20Z"></path><path d="M21,4V7h5.556A3.959,3.959,0,0,1,26,5a3.939,3.939,0,0,1,.142-1Z"></path><path d="M45.66,16.049,42.7,9.812,39.859,9H39V20a3,3,0,0,1-3,3H31.286l2.078,8.193,3.361-2.584a2.879,2.879,0,0,1,3.551,0l3.251,2.5,2.41-12.824A3.7,3.7,0,0,0,45.66,16.049Z"></path><path d="M24,23a3,3,0,0,1-3-3V9h-.859L17.3,9.812l-2.963,6.247a3.685,3.685,0,0,0-.271,2.227l2.409,12.822,3.252-2.5a2.879,2.879,0,0,1,3.551,0l3.36,2.583L28.714,23Z"></path><circle cx="30" cy="5" r="2"></circle><path d="M14,3V7.349a1,1,0,0,0,1.275.961L19,7.245V3a1,1,0,0,0-1-1H15A1,1,0,0,0,14,3Z"></path><path d="M37.943,41.805a.892.892,0,0,0,1.113,0l4.5-3.46A1.194,1.194,0,0,0,44,37.4V34.6a1.194,1.194,0,0,0-.443-.947l-4.5-3.459a.893.893,0,0,0-1.113,0l-4.5,3.46A1.194,1.194,0,0,0,33,34.6v2.8a1.194,1.194,0,0,0,.443.947Z"></path><path d="M35.639,57.209a1,1,0,0,0,.977.791H41.36a1,1,0,0,0,.981-.8L44.68,45.483a3.977,3.977,0,0,0-.342-2.562L43.384,41l-3.109,2.39a2.876,2.876,0,0,1-3.551,0l-2.646-2.034L33.3,44.074a4.1,4.1,0,0,0-.064,1.938Z"></path><path d="M46,3a1,1,0,0,0-1-1H42a1,1,0,0,0-1,1V7.245L44.725,8.31A1,1,0,0,0,46,7.349Z"></path></svg>