<svg xmlns="http://www.w3.org/2000/svg" viewBox="0 0 60 60" x="0px" y="0px"><path d="M47.47,11.8a1.948,1.948,0,0,1-.24-.45l-5.56,5.56-2.12-2.12a1.992,1.992,0,0,0-2.82,0l-1.48,1.48a1,1,0,0,1-1.17.18,22.013,22.013,0,1,0,9.47,9.47,1,1,0,0,1,.18-1.17l1.48-1.48a1.992,1.992,0,0,0,0-2.82l-2.12-2.12,5.56-5.56A2.706,2.706,0,0,1,47.47,11.8ZM7,41a3,3,0,1,1,3-3A3.009,3.009,0,0,1,7,41ZM18.85,22.98a14.094,14.094,0,0,0-7.98,8.14,2.872,2.872,0,0,1-.32.63,3.114,3.114,0,0,1-3.39,1.18,2.973,2.973,0,0,1-1.95-3.78,19.984,19.984,0,0,1,11.4-11.73,2.966,2.966,0,0,1,3.75,1.59A2.927,2.927,0,0,1,18.85,22.98Z"></path><path d="M49.052,10a.734.734,0,0,0,.949.949l2.955-1.12a1.638,1.638,0,0,1,1.088,0L57,10.948A.734.734,0,0,0,57.948,10l-1.011-2.69a2.236,2.236,0,0,1,0-1.618L57.948,3A.734.734,0,0,0,57,2.052l-2.69,1.011a2.236,2.236,0,0,1-1.618,0L50,2.052A.734.734,0,0,0,49.052,3l1.011,2.69a2.236,2.236,0,0,1,0,1.618Z"></path><circle cx="7" cy="38" r="1"></circle><path d="M18.542,19.8a.951.951,0,0,0-1.191-.52A17.956,17.956,0,0,0,7.092,29.832a.955.955,0,0,0,.639,1.19l.113.033A.982.982,0,0,0,9,30.424a16.086,16.086,0,0,1,9.11-9.3.871.871,0,0,0,.478-.479.953.953,0,0,0,0-.743Z"></path></svg>