<svg xmlns="http://www.w3.org/2000/svg" viewBox="0 0 60 60" x="0px" y="0px"><path d="M14,58H46a1,1,0,0,0,1-1V51H44a1.993,1.993,0,0,1-1.722-1H14a4,4,0,0,0,0,8Zm1-5H41a1,1,0,0,1,0,2H15a1,1,0,0,1,0-2Z"></path><path d="M50,48V43l-2,0v3a1,1,0,0,1-1,1H44v2h5A1,1,0,0,0,50,48Z"></path><path d="M14,3a4,4,0,0,0-4,4V49.54A5.969,5.969,0,0,1,14,48Z"></path><path d="M37,19H25a2,2,0,0,0-2,2H39A2.005,2.005,0,0,0,37,19Z"></path><path d="M32,31a1,1,0,0,1-2,0V23H28V40l3,3,3-3V23H32Z"></path><circle cx="31" cy="10" r="2"></circle><path d="M31,14a3.946,3.946,0,0,1-1.378-.26L29.154,17h3.692l-.468-3.26A3.946,3.946,0,0,1,31,14Z"></path><path d="M16,48H42V47a2,2,0,0,1,2-2h2V43a2,2,0,0,1,2-2h1V10H48a2,2,0,0,1-2-2V6H44a2,2,0,0,1-2-2V3H16Zm9-31h2.133l.664-4.628A3.964,3.964,0,0,1,27,10a4,4,0,0,1,8,0,3.964,3.964,0,0,1-.8,2.372L34.867,17H37a4,4,0,0,1,4,4,2,2,0,0,1-2,2H36V40a1.986,1.986,0,0,1-.586,1.414l-3,3a2,2,0,0,1-2.828,0l-3-3A1.986,1.986,0,0,1,26,40V23H23a2,2,0,0,1-2-2A4,4,0,0,1,25,17Z"></path><path d="M49,2H44V4h3a1,1,0,0,1,1,1V8h2V3A1,1,0,0,0,49,2Z"></path></svg>