<svg xmlns="http://www.w3.org/2000/svg" viewBox="0 0 60 60" x="0px" y="0px"><path d="M50,8V3a1,1,0,0,0-1-1H44V4h3a1,1,0,0,1,1,1V8Z"></path><path d="M16,3V48H42V47a2,2,0,0,1,2-2h2V43a2,2,0,0,1,2-2h1V10H48a2,2,0,0,1-2-2V6H44a2,2,0,0,1-2-2V3Zm2.9,9.611L21.46,11.46,22.611,8.9a1.523,1.523,0,0,1,2.778,0L26.54,11.46,29.1,12.611a1.523,1.523,0,0,1,0,2.778L26.54,16.54,25.389,19.1a1.523,1.523,0,0,1-2.778,0L21.46,16.54,18.9,15.389a1.523,1.523,0,0,1,0-2.778ZM29.1,39.389,26.54,40.54,25.389,43.1a1.523,1.523,0,0,1-2.778,0L21.46,40.54,18.9,39.389a1.523,1.523,0,0,1,0-2.778L21.46,35.46,22.611,32.9a1.523,1.523,0,0,1,2.778,0L26.54,35.46,29.1,36.611a1.523,1.523,0,0,1,0,2.778ZM32,36a1.919,1.919,0,0,1-1.771-1.146l-2.2-4.886-4.886-2.2a1.941,1.941,0,0,1,0-3.542l4.886-2.2,2.2-4.886a1.941,1.941,0,0,1,3.542,0l2.2,4.886,4.886,2.2a1.941,1.941,0,0,1,0,3.542l-4.886,2.2-2.2,4.886A1.919,1.919,0,0,1,32,36Zm13.1,3.389L42.54,40.54,41.389,43.1a1.523,1.523,0,0,1-2.778,0L37.46,40.54,34.9,39.389a1.523,1.523,0,0,1,0-2.778L37.46,35.46,38.611,32.9a1.523,1.523,0,0,1,2.778,0L42.54,35.46,45.1,36.611a1.523,1.523,0,0,1,0,2.778ZM42.54,11.46,45.1,12.611a1.523,1.523,0,0,1,0,2.778L42.54,16.54,41.389,19.1a1.523,1.523,0,0,1-2.778,0L37.46,16.54,34.9,15.389a1.523,1.523,0,0,1,0-2.778L37.46,11.46,38.611,8.9a1.523,1.523,0,0,1,2.778,0Z"></path><path d="M48,46a1,1,0,0,1-1,1H44v2h5a1,1,0,0,0,1-1V43l-2,0Z"></path><path d="M40.872,12.626,40,10.687l-.872,1.939a1.006,1.006,0,0,1-.5.5L36.687,14l1.939.872a1.006,1.006,0,0,1,.5.5L40,17.313l.872-1.939a1.006,1.006,0,0,1,.5-.5L43.313,14l-1.939-.872A1.006,1.006,0,0,1,40.872,12.626Z"></path><path d="M40.872,36.626,40,34.687l-.872,1.939a1.006,1.006,0,0,1-.5.5L36.687,38l1.939.872a1.006,1.006,0,0,1,.5.5L40,41.313l.872-1.939a1.006,1.006,0,0,1,.5-.5L43.313,38l-1.939-.872A1.006,1.006,0,0,1,40.872,36.626Z"></path><path d="M24.872,36.626,24,34.687l-.872,1.939a1.006,1.006,0,0,1-.5.5L20.687,38l1.939.872a1.006,1.006,0,0,1,.5.5L24,41.313l.872-1.939a1.006,1.006,0,0,1,.5-.5L27.313,38l-1.939-.872A1.006,1.006,0,0,1,24.872,36.626Z"></path><path d="M34.8,23.7a1,1,0,0,1-.5-.5l-2.318-5.156L29.7,23.2a1,1,0,0,1-.5.5L24.085,26,29.2,28.3a1,1,0,0,1,.5.5L32,33.915,34.3,28.8a1,1,0,0,1,.5-.5L39.915,26Z"></path><path d="M14,3a4,4,0,0,0-4,4V49.54A5.969,5.969,0,0,1,14,48Z"></path><path d="M14,58H46a1,1,0,0,0,1-1V51H44a1.993,1.993,0,0,1-1.722-1H14a4,4,0,0,0,0,8Zm1-5H41a1,1,0,0,1,0,2H15a1,1,0,0,1,0-2Z"></path><path d="M23.128,15.374,24,17.313l.872-1.939a1.006,1.006,0,0,1,.5-.5L27.313,14l-1.939-.872a1.006,1.006,0,0,1-.5-.5L24,10.687l-.872,1.939a1.006,1.006,0,0,1-.5.5L20.687,14l1.939.872A1.006,1.006,0,0,1,23.128,15.374Z"></path></svg>