<svg xmlns="http://www.w3.org/2000/svg" viewBox="0 0 60 60" x="0px" y="0px"><path d="M35,1a1,1,0,0,0-1,1V14h2V2A1,1,0,0,0,35,1Z"></path><path d="M30,42a5.006,5.006,0,0,0-5,5V58H35V47A5.006,5.006,0,0,0,30,42Z"></path><path d="M57,34H55a1,1,0,0,0-1,1v2a1,1,0,0,1-1,1H7a1,1,0,0,1-1-1V35a1,1,0,0,0-1-1H3a1,1,0,0,0-1,1V57a1,1,0,0,0,1,1H23V47a7,7,0,0,1,14,0V58H57a1,1,0,0,0,1-1V35A1,1,0,0,0,57,34ZM9,46V45H6a1,1,0,0,1,0-2H7V42a1,1,0,0,1,2,0v1h2V42a1,1,0,0,1,2,0v1h1a1,1,0,0,1,0,2H11v1a1,1,0,0,1-2,0Zm10,7H16v1a1,1,0,0,1-2,0V53H11a1,1,0,0,1,0-2h1V50a1,1,0,0,1,2,0v1h2V50a1,1,0,0,1,2,0v1h1a1,1,0,0,1,0,2Zm30,0H46v1a1,1,0,0,1-2,0V53H41a1,1,0,0,1,0-2h1V50a1,1,0,0,1,2,0v1h2V50a1,1,0,0,1,2,0v1h1a1,1,0,0,1,0,2Zm5-8H51v1a1,1,0,0,1-2,0V45H46a1,1,0,0,1,0-2h1V42a1,1,0,0,1,2,0v1h2V42a1,1,0,0,1,2,0v1h1a1,1,0,0,1,0,2Z"></path><rect x="17" y="24" width="4" height="7" rx="1"></rect><path d="M45,8V4a1,1,0,0,0-1-1H38V9h6A1,1,0,0,0,45,8Z"></path><rect x="39" y="24" width="4" height="7" rx="1"></rect><path d="M15,16H13a1,1,0,0,0-1,1V36H48V17a1,1,0,0,0-1-1H45a1,1,0,0,0-1,1v2a1,1,0,0,1-1,1H39a1,1,0,0,1-1-1V17a1,1,0,0,0-1-1H34a1,1,0,0,0-1,1v2a1,1,0,0,1-1,1H28a1,1,0,0,1-1-1V17a1,1,0,0,0-1-1H23a1,1,0,0,0-1,1v2a1,1,0,0,1-1,1H17a1,1,0,0,1-1-1V17A1,1,0,0,0,15,16Zm22,9a3,3,0,0,1,3-3h2a3,3,0,0,1,3,3v5a3,3,0,0,1-3,3H40a3,3,0,0,1-3-3ZM26,27h1V26a1,1,0,0,1,2,0v1h2V26a1,1,0,0,1,2,0v1h1a1,1,0,0,1,0,2H31v1a1,1,0,0,1-2,0V29H26a1,1,0,0,1,0-2Zm-8-5h2a3,3,0,0,1,3,3v5a3,3,0,0,1-3,3H18a3,3,0,0,1-3-3V25A3,3,0,0,1,18,22Z"></path></svg>