<svg xmlns="http://www.w3.org/2000/svg" viewBox="0 0 60 60" x="0px" y="0px"><path d="M14.185,56.421a1,1,0,0,0,1.629,1.159L17.09,55.8q-.813-.591-1.567-1.253Z"></path><circle cx="22" cy="9" r="3"></circle><path d="M42.91,55.8l1.274,1.779a1.017,1.017,0,0,0,1.4.237,1,1,0,0,0,.234-1.4l-1.338-1.875Q43.723,55.206,42.91,55.8Z"></path><circle cx="33" cy="4" r="2"></circle><path d="M45.747,2.139A2,2,0,0,0,43.118,3.36L38.489,17H41.2L46.885,4.677A2,2,0,0,0,45.747,2.139Z"></path><path d="M13,20a1,1,0,0,0,1,1H46a1,1,0,0,0,0-2H14A1,1,0,0,0,13,20Z"></path><path d="M22.2,33.777A1.059,1.059,0,0,0,23.228,35a1.042,1.042,0,0,0,1.026-.87c.527-3.071,1.808-8.038,4.778-11.13H20.809a27.793,27.793,0,0,0-6.621,12.843A1,1,0,0,0,15.173,37a.979.979,0,0,0,.979-.847,14.947,14.947,0,0,1,1.466-4.779,2.515,2.515,0,0,1,4.239-.387,2.483,2.483,0,0,1,.486,2.112C22.293,33.308,22.244,33.535,22.2,33.777Z"></path><path d="M32,16a2.926,2.926,0,0,0,.2,1h4.18l.961-2.831A2.936,2.936,0,0,0,35,13,3,3,0,0,0,32,16Z"></path><path d="M30,58A19.993,19.993,0,0,0,43.218,23H32.268c-4.043,2.194-5.573,8.727-6.043,11.469a3.037,3.037,0,0,1-3,2.531,3.077,3.077,0,0,1-3-3.581c.052-.282.109-.547.168-.79a.487.487,0,0,0-.1-.42.56.56,0,0,0-.915.1,12.919,12.919,0,0,0-1.256,4.126,2.994,2.994,0,1,1-5.915-.924A29.121,29.121,0,0,1,18.169,23H16.782A19.993,19.993,0,0,0,30,58Z"></path></svg>