<svg xmlns="http://www.w3.org/2000/svg" viewBox="0 0 60 60" x="0px" y="0px"><path d="M54.768,24.007l-1.692.13a1.018,1.018,0,0,1-1.036-.715,22.114,22.114,0,0,0-1.808-4.354,1,1,0,0,1,.226-1.236l1.29-1.109A2.98,2.98,0,0,0,52.8,14.545a2.941,2.941,0,0,0-.874-2.216L47.673,8.077A2.933,2.933,0,0,0,45.455,7.2a2.979,2.979,0,0,0-2.177,1.05l-1.11,1.291a1,1,0,0,1-1.236.226A22.114,22.114,0,0,0,36.578,7.96a1,1,0,0,1-.715-1.036l.13-1.691A3,3,0,0,0,33,2H27a3,3,0,0,0-2.993,3.232l.13,1.692a1,1,0,0,1-.715,1.036,22.114,22.114,0,0,0-4.354,1.808,1,1,0,0,1-1.236-.226l-1.109-1.29A2.98,2.98,0,0,0,14.545,7.2a2.933,2.933,0,0,0-2.216.874L8.077,12.327A2.943,2.943,0,0,0,7.2,14.545a2.979,2.979,0,0,0,1.05,2.177l1.291,1.11a1,1,0,0,1,.226,1.236A22.114,22.114,0,0,0,7.96,23.422a1.043,1.043,0,0,1-1.036.715l-1.691-.13A3,3,0,0,0,2,27v6a3,3,0,0,0,3.232,2.993l1.692-.13a1.026,1.026,0,0,1,1.036.715,22.114,22.114,0,0,0,1.808,4.354,1,1,0,0,1-.226,1.236l-1.29,1.109A2.98,2.98,0,0,0,7.2,45.455a2.941,2.941,0,0,0,.874,2.216l4.252,4.252a2.912,2.912,0,0,0,2.218.876,2.979,2.979,0,0,0,2.177-1.05l1.11-1.291a1,1,0,0,1,1.236-.226,22.114,22.114,0,0,0,4.354,1.808,1,1,0,0,1,.715,1.036l-.13,1.691A3,3,0,0,0,27,58h6a3,3,0,0,0,2.993-3.232l-.13-1.692a1,1,0,0,1,.715-1.036,22.114,22.114,0,0,0,4.354-1.808,1,1,0,0,1,1.236.226l1.109,1.29A2.98,2.98,0,0,0,45.455,52.8a2.919,2.919,0,0,0,2.216-.874l4.252-4.252a2.943,2.943,0,0,0,.876-2.218,2.979,2.979,0,0,0-1.05-2.177l-1.291-1.11a1,1,0,0,1-.226-1.236,22.114,22.114,0,0,0,1.808-4.354,1,1,0,0,1,1.036-.715l1.691.13a3,3,0,0,0,2.27-.789A2.97,2.97,0,0,0,58,33V27a3,3,0,0,0-3.232-2.993ZM30,47A17,17,0,1,1,47,30,17.019,17.019,0,0,1,30,47Z"></path><path d="M30,15A15,15,0,1,0,45,30,15.017,15.017,0,0,0,30,15Zm0,25A10,10,0,1,1,40,30,10.011,10.011,0,0,1,30,40Z"></path><circle cx="30" cy="30" r="8"></circle></svg>