<svg xmlns="http://www.w3.org/2000/svg" viewBox="0 0 60 60" x="0px" y="0px"><path d="M30,58A28,28,0,1,0,2,30,28.032,28.032,0,0,0,30,58ZM30,4A26,26,0,1,1,4,30,26.029,26.029,0,0,1,30,4Z"></path><path d="M30,54A24,24,0,1,0,6,30,24.028,24.028,0,0,0,30,54Zm5-36V42a3,3,0,0,1-3,3H28a3,3,0,0,1-3-3V18a3,3,0,0,1,3-3h4A3,3,0,0,1,35,18ZM10,30a1,1,0,0,1-2,0q0-.526.024-1.047a1,1,0,0,1,2,.094C10.008,29.363,10,29.681,10,30Zm-.4-4a.985.985,0,0,1-.24-.029,1,1,0,0,1-.733-1.209A21.953,21.953,0,0,1,30,8a1,1,0,0,1,0,2A19.956,19.956,0,0,0,10.573,25.238,1,1,0,0,1,9.6,26Z"></path><rect x="27" y="17" width="6" height="26" rx="1"></rect></svg>