<svg xmlns="http://www.w3.org/2000/svg" viewBox="0 0 60 60" x="0px" y="0px"><path d="M42.356,24.853l-6.326-.925a1.969,1.969,0,0,1-1.484-1.084l-2.829-5.768a1.908,1.908,0,0,0-3.434,0l-2.829,5.768a1.969,1.969,0,0,1-1.485,1.084l-6.325.925A1.885,1.885,0,0,0,16.1,26.162a1.908,1.908,0,0,0,.484,1.992l4.577,4.491a1.988,1.988,0,0,1,.566,1.746l-1.081,6.34a1.908,1.908,0,0,0,.771,1.9,1.867,1.867,0,0,0,2,.14l5.658-2.993a1.974,1.974,0,0,1,1.839,0l5.659,2.994a1.871,1.871,0,0,0,2-.14,1.908,1.908,0,0,0,.771-1.9l-1.08-6.339a1.985,1.985,0,0,1,.564-1.746l4.578-4.492a1.908,1.908,0,0,0,.484-1.992A1.885,1.885,0,0,0,42.356,24.853Z"></path><path d="M30,2A28,28,0,1,0,58,30,28.032,28.032,0,0,0,30,2Zm0,54A26,26,0,1,1,56,30,26.029,26.029,0,0,1,30,56Z"></path><path d="M30,6A24,24,0,1,0,54,30,24.028,24.028,0,0,0,30,6ZM10,30a1,1,0,0,1-2,0q0-.526.024-1.047a1,1,0,0,1,2,.094C10.008,29.363,10,29.681,10,30Zm.573-4.762A1,1,0,0,1,9.6,26a.985.985,0,0,1-.24-.029,1,1,0,0,1-.733-1.209A21.953,21.953,0,0,1,30,8a1,1,0,0,1,0,2A19.956,19.956,0,0,0,10.573,25.238Zm34.243,4.344-4.577,4.49L41.325,40.4a3.918,3.918,0,0,1-5.682,4.144l-5.659-2.993L24.357,44.54A3.918,3.918,0,0,1,18.675,40.4l1.08-6.34-4.571-4.474a3.938,3.938,0,0,1,2.17-6.707l6.327-.926L26.488,16.2a3.907,3.907,0,0,1,7.024,0l2.829,5.768,6.305.912a3.938,3.938,0,0,1,2.17,6.707Z"></path></svg>