<svg xmlns="http://www.w3.org/2000/svg" viewBox="0 0 60 60" x="0px" y="0px"><path d="M55,42.23V17.77a5,5,0,0,0-2.63-4.4L32.371,2.6a4.985,4.985,0,0,0-4.742,0l-20,10.769A5,5,0,0,0,5,17.77V42.23a5,5,0,0,0,2.63,4.4l20,10.769a4.99,4.99,0,0,0,4.742,0l20-10.769A5,5,0,0,0,55,42.23Zm-3.579,2.64-20,10.772A3,3,0,0,1,30,55.984h0a3.026,3.026,0,0,1-1.421-.343l-20-10.771A3,3,0,0,1,7,42.228V17.761a3,3,0,0,1,1.579-2.643l20-10.771a3.113,3.113,0,0,1,2.849,0l20,10.77A3,3,0,0,1,53,17.761V42.228A3,3,0,0,1,51.421,44.87Z"></path><path d="M50.474,16.879l-20-10.771A1.012,1.012,0,0,0,30,6a1.026,1.026,0,0,0-.473.106l-20,10.774A1,1,0,0,0,9,17.761V42.228a1,1,0,0,0,.526.881l20,10.771a1.2,1.2,0,0,0,.949,0l20-10.774a1,1,0,0,0,.527-.88V17.761A1,1,0,0,0,50.474,16.879ZM35,42a3,3,0,0,1-3,3H28a3,3,0,0,1-3-3V18a3,3,0,0,1,3-3h4a3,3,0,0,1,3,3Z"></path><rect x="27" y="17" width="6" height="26" rx="1"></rect></svg>