<svg xmlns="http://www.w3.org/2000/svg" viewBox="0 0 60 60" x="0px" y="0px"><polygon points="22.999 28.63 19.416 32 22.999 32 22.999 28.63"></polygon><path d="M18.693,34c1.947,2.117,5.7,6.115,8.583,9.185L23.34,34Z"></path><polygon points="32.74 43.143 41.296 34 36.659 34 32.74 43.143"></polygon><path d="M40.7,17H19.3C10.663,22.4,6,32.748,6,39.82,6,49.845,16.767,58,30,58s24-8.155,24-18.18C54,32.748,49.337,22.4,40.7,17Zm2.808,17.563L31.582,47.308A2.187,2.187,0,0,1,30,48h0a2.174,2.174,0,0,1-1.575-.683c-2.9-3.08-9.87-10.488-11.933-12.767A1.894,1.894,0,0,1,16.6,31.9l5.775-5.392A1.893,1.893,0,0,1,23.669,26H36.341a1.857,1.857,0,0,1,1.272.5l5.79,5.411A1.9,1.9,0,0,1,43.508,34.563Z"></path><polygon points="37 28.668 37 32 40.565 32 37 28.668"></polygon><polygon points="25.515 34 29.999 44.462 34.483 34 25.515 34"></polygon><rect x="24.999" y="28" width="10.001" height="4"></rect><path d="M33.854,11l2.111-7.736A1,1,0,0,0,35,2H25a1,1,0,0,0-.965,1.264L26.146,11Z"></path><path d="M42.955,4.153A.288.288,0,0,0,42.69,4H37.837l-1.91,7h3.106l3.919-6.534A.3.3,0,0,0,42.955,4.153Z"></path><path d="M19,15H41a1,1,0,0,0,0-2H19a1,1,0,0,0,0,2Z"></path><path d="M17.31,4a.288.288,0,0,0-.265.153.3.3,0,0,0,0,.314L20.967,11h3.106l-1.91-7Z"></path></svg>