<svg xmlns="http://www.w3.org/2000/svg" viewBox="0 0 60 60" x="0px" y="0px"><path d="M32,36.492V39a2.963,2.963,0,0,0,.569,1.741l4.175-3.231A31.733,31.733,0,0,0,32,36.492Z"></path><path d="M4,58a2,2,0,0,0,2-2V40H2V56A2,2,0,0,0,4,58Z"></path><path d="M57.7,23.848c-5.43-2.992-12.384-2.331-14.7-2V32.711a5.074,5.074,0,0,1-2.034,4.069c-.02.015-.042.027-.063.041l-6.581,5.093A3,3,0,0,0,35.01,42h6.51a3.04,3.04,0,0,0,2.96-2.5c1.886-9.266,9.043-13.118,13.141-14.591a.56.56,0,0,0,.377-.5A.566.566,0,0,0,57.7,23.848Z"></path><path d="M6,5V4A2,2,0,0,0,2,4V38H6Z"></path><path d="M39.777,35.172A3.023,3.023,0,0,0,41,32.711V7.218A3,3,0,0,0,39.331,4.5C36.932,3.357,32.411,2,24.5,2,13.511,2,9.086,4.668,8,5.473V37.11C10.313,35.835,15.247,34,24.5,34a44.576,44.576,0,0,1,12.842,1.6A2.729,2.729,0,0,0,39.777,35.172Z"></path></svg>