<svg xmlns="http://www.w3.org/2000/svg" viewBox="0 0 60 60" x="0px" y="0px"><path d="M31,10V6.23a1,1,0,0,1,.343-.753A1.95,1.95,0,0,0,32,4a2,2,0,0,0-4,0,1.947,1.947,0,0,0,.656,1.475A1,1,0,0,1,29,6.229V10Z"></path><path d="M7,13a2,2,0,0,0,0,4,1.95,1.95,0,0,0,1.477-.657A1,1,0,0,1,9.23,16H13V14H9.23a1,1,0,0,1-.753-.343A1.95,1.95,0,0,0,7,13Z"></path><path d="M53,17a2,2,0,0,0,0-4,1.947,1.947,0,0,0-1.475.656,1,1,0,0,1-.754.344H47v2h3.77a1,1,0,0,1,.753.343A1.95,1.95,0,0,0,53,17Z"></path><path d="M26,56a1,1,0,0,0-1,1v1H35V57a1,1,0,0,0-1-1H26Z"></path><path d="M30,51a3.008,3.008,0,0,1-1-.175V54h2V50.822A3.008,3.008,0,0,1,30,51Z"></path><path d="M15,13V37.5a1.006,1.006,0,0,0,.4.8l14,10.5a1.007,1.007,0,0,0,1.2,0l14-10.5a1.006,1.006,0,0,0,.4-.8V13a1,1,0,0,0-1-1H16A1,1,0,0,0,15,13Zm2,3a2,2,0,0,1,2-2H41a2,2,0,0,1,2,2V36a2.008,2.008,0,0,1-.8,1.6l-11,8.249a2.009,2.009,0,0,1-2.4,0l-11-8.25A2.007,2.007,0,0,1,17,36Z"></path><path d="M30.7,32.383l3.016,1.551a.563.563,0,0,0,.61-.05.487.487,0,0,0,.2-.49l-.576-3.28a1.491,1.491,0,0,1,.446-1.343l2.441-2.322a.475.475,0,0,0,.135-.51.531.531,0,0,0-.45-.366L33.156,25.1a1.527,1.527,0,0,1-1.151-.827L30.5,21.3a.565.565,0,0,0-1-.006L27.99,24.28a1.518,1.518,0,0,1-1.139.817l-3.377.476a.531.531,0,0,0-.449.366.475.475,0,0,0,.135.51L25.6,28.771a1.492,1.492,0,0,1,.445,1.337l-.576,3.285a.486.486,0,0,0,.2.491.581.581,0,0,0,.612.049L29.3,32.382a1.522,1.522,0,0,1,1.4,0Z"></path><path d="M41,36V16H19V36l11,8.25Zm-16.514-.507a2.491,2.491,0,0,1-.984-2.447l.527-3.01L21.781,27.9a2.48,2.48,0,0,1-.661-2.568,2.527,2.527,0,0,1,2.073-1.737l3.127-.442,1.4-2.754a2.564,2.564,0,0,1,4.569.006l1.394,2.748,3.126.442A2.527,2.527,0,0,1,38.88,25.33a2.48,2.48,0,0,1-.661,2.568l-2.248,2.138.528,3.011a2.493,2.493,0,0,1-.985,2.446A2.57,2.57,0,0,1,33.983,36a2.6,2.6,0,0,1-1.18-.286L30,34.272l-2.8,1.441A2.568,2.568,0,0,1,24.486,35.493Z"></path></svg>