<svg xmlns="http://www.w3.org/2000/svg" viewBox="0 0 60 60" x="0px" y="0px"><path d="M3.206,57.831A2,2,0,0,0,5.83,56.8,51.671,51.671,0,0,0,8.738,45.724L4.78,45.115A51.357,51.357,0,0,1,2.157,55.224,1.994,1.994,0,0,0,3.206,57.831Z"></path><path d="M9.418,40.772l-4.641-.713-.459,2.962,4.724.726Q9.246,42.328,9.418,40.772Z"></path><path d="M5.115,17.172A91.57,91.57,0,0,1,6,30c0,2.749-.134,5.485-.363,8.169l3.976.611C9.865,35.9,10,32.95,10,30a95.858,95.858,0,0,0-.977-13.816Z"></path><path d="M5.832,3.2A1.978,1.978,0,0,0,3.221,2.166,2.009,2.009,0,0,0,2.164,4.791,38.481,38.481,0,0,1,3.83,10.276l3.887-.984A43.081,43.081,0,0,0,5.832,3.2Z"></path><path d="M4.318,43.021v0a.774.774,0,0,1,.1.036A.464.464,0,0,0,4.318,43.021Z"></path><ellipse cx="30" cy="23.5" rx="2" ry="1.5"></ellipse><path d="M8.716,14.2q-.247-1.464-.562-2.953L3.213,12.5,3.945,15.4Z"></path><path d="M57.582,5.036a1.023,1.023,0,0,0-.943-.121A19.535,19.535,0,0,1,50,6,24.194,24.194,0,0,1,39.737,4.114C37.032,3.074,34.236,2,27,2A21.838,21.838,0,0,0,9.991,10.253c.308,1.417.571,2.792.8,4.17C12.045,15.564,17,20.527,17,28a16.175,16.175,0,0,1-5.533,12.454q-.149,1.423-.327,2.741A41.054,41.054,0,0,1,27,40c7.607,0,10.714,1.193,13.455,2.247A22.5,22.5,0,0,0,50,44c3.957,0,5.947-.8,7.508-1.672A.979.979,0,0,0,58,41.466V5.846A.976.976,0,0,0,57.582,5.036ZM47.417,23.652A5.271,5.271,0,0,1,46.9,29.27,4.436,4.436,0,0,1,43,31.006v2.572a3,3,0,0,1-2.474,2.954,33.062,33.062,0,0,1-11.051,0A3,3,0,0,1,27,33.578V31a5.281,5.281,0,0,1-3.259-1.256,4.989,4.989,0,0,1-1.157-6.092,1.066,1.066,0,0,0,.123-.763A23.35,23.35,0,0,1,22,17c0-5.514,5.832-10,13-10s13,4.486,13,10a23.342,23.342,0,0,1-.707,5.885A1.085,1.085,0,0,0,47.417,23.652Z"></path><path d="M45.649,24.587a3.069,3.069,0,0,1-.292-2.207A21.309,21.309,0,0,0,46,17c0-4.411-4.935-8-11-8s-11,3.589-11,8a21.3,21.3,0,0,0,.643,5.38,3.058,3.058,0,0,1-.292,2.208,3.015,3.015,0,0,0,.688,3.632,3.29,3.29,0,0,0,2.114.78A1.846,1.846,0,0,1,29,30.83v2.748a1,1,0,0,0,.826.985,30.941,30.941,0,0,0,10.349,0A1,1,0,0,0,41,33.578V30.83a1.839,1.839,0,0,1,.566-1.325,1.861,1.861,0,0,1,1.351-.5,2.7,2.7,0,0,0,2.346-.877,3.255,3.255,0,0,0,.386-3.537ZM26,23.5A3.779,3.779,0,0,1,30,20a3.779,3.779,0,0,1,4,3.5A3.779,3.779,0,0,1,30,27,3.779,3.779,0,0,1,26,23.5Zm11.555,7.332a1,1,0,0,1-1.387-.277L35,28.8l-1.168,1.752a1,1,0,0,1-1.664-1.11l2-3a1.039,1.039,0,0,1,1.664,0l2,3A1,1,0,0,1,37.555,30.832ZM40,27a3.779,3.779,0,0,1-4-3.5A3.779,3.779,0,0,1,40,20a3.779,3.779,0,0,1,4,3.5A3.779,3.779,0,0,1,40,27Z"></path><ellipse cx="40" cy="23.5" rx="2" ry="1.5"></ellipse></svg>