<svg xmlns="http://www.w3.org/2000/svg" viewBox="0 0 60 60" x="0px" y="0px"><path d="M8.921,40.375a22.744,22.744,0,0,1,5.906-9.82,24.376,24.376,0,0,1,4.705-3.7.978.978,0,0,0,.419-1.148,1,1,0,0,0-1.434-.575,26.485,26.485,0,0,0-5.106,4.008A24.717,24.717,0,0,0,6.989,39.873a1.03,1.03,0,0,0,.976,1.249A1,1,0,0,0,8.921,40.375Z"></path><path d="M9.76,56.789c7.019,3.043,16.906.175,24.054-6.976a29.049,29.049,0,0,0,6.62-10.04c-2.84-3.13-5.456-6.63-6.262-11.966a14.8,14.8,0,0,1,.337-6.058,7.888,7.888,0,0,1-1.979.257A12.333,12.333,0,0,1,24.8,18.755c-.138-.12-.27-.252-.405-.379a27.628,27.628,0,0,0-14.211,7.812C3.1,33.264.212,43.086,3.146,50.074a2.929,2.929,0,0,1-.122,2.53,3.151,3.151,0,0,0,4.213,4.267A2.948,2.948,0,0,1,9.76,56.789Zm-4.7-17.458A26.73,26.73,0,0,1,12,27.725a28.559,28.559,0,0,1,5.494-4.311,2.939,2.939,0,0,1,2.552-.221,3.063,3.063,0,0,1,1.813,1.9,2.969,2.969,0,0,1-1.3,3.474,22.434,22.434,0,0,0-4.317,3.4,20.723,20.723,0,0,0-5.391,8.936,3,3,0,1,1-5.786-1.574Z"></path><path d="M27.021,4.084a22.609,22.609,0,0,1-8.3-2.021.472.472,0,0,0-.54.055.491.491,0,0,0-.157.542c1.251,3.9,3.968,11,8.083,14.586,2.486,2.157,6.22,3.77,9.352,1.969a13.122,13.122,0,0,1,3.272-4.225,7.6,7.6,0,0,0-2.5-7.725C33.354,4.755,30.277,4.429,27.021,4.084Zm6.867,11.059a1,1,0,0,1-.889.539.992.992,0,0,1-.46-.113,36.423,36.423,0,0,1-8.246-5.862,1,1,0,0,1,1.414-1.415,35,35,0,0,0,7.754,5.5A1,1,0,0,1,33.888,15.143Z"></path><path d="M45.083,14.162c-5.985,1-9.91,6.86-8.933,13.346.868,5.752,4.042,9.118,7.4,12.682C46.231,43.031,49,45.969,50.8,50.261A1.157,1.157,0,0,0,51.886,51a1.171,1.171,0,0,0,1.1-.743c2.308-5.675,5.995-16.4,4.771-24.506-.667-4.4-2.606-8.048-5.317-10.022A9.04,9.04,0,0,0,47,14,11.831,11.831,0,0,0,45.083,14.162ZM51,37a1,1,0,0,1-1-1,36.657,36.657,0,0,0-4.868-18.119,1,1,0,1,1,1.736-.992A38.654,38.654,0,0,1,52,36,1,1,0,0,1,51,37Z"></path></svg>