<svg xmlns="http://www.w3.org/2000/svg" viewBox="0 0 60 60" x="0px" y="0px"><path d="M20.923,17.74a13.561,13.561,0,0,0-8.4,9.618.98.98,0,0,0-.031.242.926.926,0,0,0,.808.926,1.079,1.079,0,0,0,1.2-.765,11.859,11.859,0,0,1,7.2-8.24.909.909,0,0,0,.5-1.16A.963.963,0,0,0,20.923,17.74Z"></path><path d="M33.5,12.205A21.067,21.067,0,0,0,33,17a3,3,0,1,1-6,0,28.848,28.848,0,0,1,.394-4.888C17.79,12.919,8,18.494,8,32c0,8.719,2.175,15.425,6.465,19.931C18.236,55.9,23.608,58,30,58s11.764-2.1,15.535-6.068C49.825,47.425,52,40.719,52,32,52,20.82,45.094,13.483,33.5,12.205ZM13,39a3,3,0,1,1,3-3A3,3,0,0,1,13,39Zm9.481-17.64a9.947,9.947,0,0,0-6.043,6.9,3.071,3.071,0,0,1-2.985,2.277,3.365,3.365,0,0,1-.4-.025,2.966,2.966,0,0,1-2.474-3.634A15.661,15.661,0,0,1,20.143,15.9a2.9,2.9,0,0,1,2.287,0A3.017,3.017,0,0,1,22.481,21.36Z"></path><path d="M18.164,5.014a19.029,19.029,0,0,1,9.475,5.092c.067,0,.133-.012.2-.016a17.724,17.724,0,0,1,1.189-3.2A11.68,11.68,0,0,0,23.361,2.6C19.137.926,13.307,3.138,11,4.165c.775,1.859,2.879,6.308,6.147,8.616a26.053,26.053,0,0,1,7.845-2.388,17.477,17.477,0,0,0-7.154-3.407,1,1,0,0,1,.33-1.972Z"></path><path d="M29,17a1,1,0,1,0,2,0C31,5.274,37.823,4.042,38.113,4a1.008,1.008,0,0,0,.879-1.118,1,1,0,0,0-.382-.669.979.979,0,0,0-.6-.208.893.893,0,0,0-.127.009C37.514,2.054,29,3.276,29,17Z"></path><circle cx="13" cy="36" r="1"></circle></svg>