<svg xmlns="http://www.w3.org/2000/svg" viewBox="0 0 60 60" x="0px" y="0px"><polygon points="2.689 20 15 20 15 8.46 2.689 20"></polygon><path d="M17,20H43V8H17Zm15.878-9.479a1,1,0,0,1-.4,1.357l-11,6a1,1,0,0,1-.958-1.756l11-6A1,1,0,0,1,32.878,10.521ZM19.553,12.105l4-2a1,1,0,0,1,.894,1.79l-4,2a1,1,0,1,1-.894-1.79Z"></path><polygon points="42.471 22 17.529 22 30 50.506 42.471 22"></polygon><path d="M27.45,49.666,15.346,22H2.486C7.118,27.138,21.042,42.566,27.45,49.666Z"></path><polygon points="32.552 49.662 57.529 22 44.654 22 32.552 49.662"></polygon><path d="M45,20H57.293C54.023,16.928,47.279,10.6,45,8.464Z"></path></svg>