<svg xmlns="http://www.w3.org/2000/svg" viewBox="0 0 60 60" x="0px" y="0px"><path d="M14,40.586,19.414,46H40.586L46,40.586V19.414L40.586,14H19.414L14,19.414ZM16.4,21.2l4-3a1,1,0,1,1,1.2,1.6l-4,3a1,1,0,0,1-1.2-1.6Zm0,6,12-9a1,1,0,1,1,1.2,1.6l-12,9a1,1,0,0,1-1.2-1.6Z"></path><polygon points="19.575 48 13.742 58 46.258 58 40.425 48 19.575 48"></polygon><polygon points="48 40.425 58 46.258 58 13.742 48 19.575 48 40.425"></polygon><path d="M57.345,48.192l-10.183-5.94-4.91,4.91,5.94,10.183a3.214,3.214,0,0,0,.273-.224l8.656-8.656A3.214,3.214,0,0,0,57.345,48.192Z"></path><path d="M57.121,11.535,48.465,2.879a3.214,3.214,0,0,0-.273-.224l-5.94,10.183,4.91,4.91,10.183-5.94A3.214,3.214,0,0,0,57.121,11.535Z"></path><path d="M2.655,48.192a3.214,3.214,0,0,0,.224.273l8.656,8.656a3.214,3.214,0,0,0,.273.224l5.94-10.183-4.91-4.91Z"></path><path d="M2.655,11.808l10.183,5.94,4.91-4.91L11.808,2.655a3.214,3.214,0,0,0-.273.224L2.879,11.535A3.214,3.214,0,0,0,2.655,11.808Z"></path><polygon points="12 19.575 2 13.742 2 46.258 12 40.425 12 19.575"></polygon><polygon points="46.258 2 13.742 2 19.575 12 40.425 12 46.258 2"></polygon></svg>