<svg xmlns="http://www.w3.org/2000/svg" viewBox="0 0 60 60" x="0px" y="0px"><path d="M23,31.325v10.12l7,4.375,7-4.375V31.325L30,21.7Zm2.293-.032,2-2a1,1,0,0,1,1.414,1.414l-2,2a1,1,0,0,1-1.414-1.414Zm7.414-1a1,1,0,0,1,0,1.414l-6,6a1,1,0,0,1-1.414-1.414l6-6A1,1,0,0,1,32.707,30.293Z"></path><polygon points="11 44.869 21 41.296 21 31.808 11 29.664 11 44.869"></polygon><polygon points="29 47.554 21.881 43.104 12.142 46.585 29 57.542 29 47.554"></polygon><polygon points="31 19.675 38.426 29.886 48.296 27.769 31 2.688 31 19.675"></polygon><polygon points="21.574 29.886 29 19.675 29 2.688 11.703 27.769 21.574 29.886"></polygon><polygon points="38.119 43.104 31 47.554 31 57.542 47.857 46.585 38.119 43.104"></polygon><polygon points="49 29.664 39 31.808 39 41.296 49 44.869 49 29.664"></polygon></svg>