<svg xmlns="http://www.w3.org/2000/svg" viewBox="0 0 60 60" x="0px" y="0px"><polygon points="12 48.341 17 45.701 17 14.299 12 11.659 12 48.341"></polygon><polygon points="31 7.385 41.97 12.58 46.922 9.966 31 2.371 31 7.385"></polygon><polygon points="13.098 50.024 29 57.61 29 52.595 18.05 47.41 13.098 50.024"></polygon><polygon points="31 52.595 31 57.61 46.902 50.024 41.95 47.41 31 52.595"></polygon><path d="M19,14.333V45.647l11,5.209,11-5.209V14.333L30,9.124Zm2.553,1.772,4-2a1,1,0,0,1,.894,1.79l-4,2a1,1,0,1,1-.894-1.79Zm12.325-.584a1,1,0,0,1-.4,1.357l-11,6a1,1,0,0,1-.958-1.756l11-6A1,1,0,0,1,33.878,15.521Z"></path><polygon points="18.03 12.58 29 7.385 29 2.371 13.078 9.966 18.03 12.58"></polygon><polygon points="48 11.659 43 14.299 43 45.701 48 48.341 48 11.659"></polygon></svg>