<svg xmlns="http://www.w3.org/2000/svg" viewBox="0 0 60 60" x="0px" y="0px"><rect x="26" y="16" width="8" height="8"></rect><path d="M6,24H24V16H5a1,1,0,0,0-1,1v6a1,1,0,0,0,1,1Z"></path><path d="M18.526,4a1.477,1.477,0,0,1,.925.278l.029.021c.133.1,1.3.912,2.719,1.906l3.255,2.281.48-2.112L20.605,2.639a3.632,3.632,0,0,0-4.554.4A3.5,3.5,0,0,0,15,5.56v4.88A3.564,3.564,0,0,0,18.56,14H24.2l.455-2H19a2,2,0,0,1-2-2V5.56A1.562,1.562,0,0,1,18.526,4Z"></path><path d="M57,56.478A4.253,4.253,0,0,0,57.935,53L53.167,26H35V58H53.739A4.254,4.254,0,0,0,57,56.478Z"></path><path d="M3,56.478A4.254,4.254,0,0,0,6.261,58H25V26H6.833L2.065,53A4.253,4.253,0,0,0,3,56.478Z"></path><path d="M39.388,2.644,34.066,6.375l.48,2.112L37.8,6.206c1.42-.994,2.586-1.81,2.719-1.906l.029-.021A1.561,1.561,0,0,1,43,5.56V10a2,2,0,0,1-2,2H35.344l.455,2H41.44A3.564,3.564,0,0,0,45,10.44V5.56a3.5,3.5,0,0,0-1.043-2.509A3.622,3.622,0,0,0,39.388,2.644Z"></path><path d="M36,24H55a1,1,0,0,0,1-1V17a1,1,0,0,0-1-1H36Z"></path><rect x="27" y="26" width="6" height="32"></rect><path d="M27.985,6.379l-.951,4.184L27.008,14h5.984l-.026-3.437-.951-4.184a2.162,2.162,0,0,0-4.03,0Z"></path></svg>