<svg xmlns="http://www.w3.org/2000/svg" viewBox="0 0 60 60" x="0px" y="0px"><path d="M3,58H28a1,1,0,0,0,.948-1.316l-4.666-14A1,1,0,0,0,23.334,42H7.668a1,1,0,0,0-.949.684l-4.666,14A1,1,0,0,0,3,58Z"></path><path d="M57.946,56.684l-4.665-14A1,1,0,0,0,52.332,42H36.665a1,1,0,0,0-.949.684l-4.666,14A1,1,0,0,0,32,58H57a1,1,0,0,0,.948-1.316Z"></path><path d="M39.282,24.684A1,1,0,0,0,38.333,24H21.667a1,1,0,0,0-.949.684l-4.667,14A1,1,0,0,0,17,40H43a1,1,0,0,0,.948-1.316Z"></path><path d="M32.973,6.163a2.223,2.223,0,0,1-1.13-1.139L30.664,2.438a.722.722,0,0,0-1.328,0L28.157,5.024a2.223,2.223,0,0,1-1.13,1.139l-2.6,1.168a.735.735,0,0,0,0,1.338l2.6,1.168a2.223,2.223,0,0,1,1.13,1.139l1.179,2.586a.722.722,0,0,0,1.328,0l1.288-2.853a1.742,1.742,0,0,1,.763-.763l2.854-1.277a.735.735,0,0,0,0-1.338Z"></path><path d="M7.336,14.438,6.157,17.024a2.223,2.223,0,0,1-1.13,1.139l-2.6,1.168a.735.735,0,0,0,0,1.338l2.6,1.168a2.223,2.223,0,0,1,1.13,1.139l1.179,2.586a.722.722,0,0,0,1.328,0l1.288-2.853a1.742,1.742,0,0,1,.763-.763l2.854-1.277a.735.735,0,0,0,0-1.338l-2.6-1.168a2.223,2.223,0,0,1-1.13-1.139L8.664,14.438A.722.722,0,0,0,7.336,14.438Z"></path><path d="M57.569,19.331l-2.6-1.168a2.223,2.223,0,0,1-1.13-1.139l-1.179-2.586a.722.722,0,0,0-1.328,0l-1.179,2.586a2.223,2.223,0,0,1-1.13,1.139l-2.6,1.168a.735.735,0,0,0,0,1.338l2.6,1.168a2.223,2.223,0,0,1,1.13,1.139l1.179,2.586a.722.722,0,0,0,1.328,0l1.288-2.853a1.742,1.742,0,0,1,.763-.763l2.854-1.277A.735.735,0,0,0,57.569,19.331Z"></path></svg>