<svg xmlns="http://www.w3.org/2000/svg" viewBox="0 0 60 60" x="0px" y="0px"><path d="M54.969,2.042A.1.1,0,0,0,54.885,2a.167.167,0,0,0-.06.013,13.321,13.321,0,0,1-3.226,8.9,14.789,14.789,0,0,1-3.548,2.934A4.292,4.292,0,0,0,46.3,19.083h0a4.6,4.6,0,0,0,3.326,2.8,4.482,4.482,0,0,0,4.13-1.114,12.487,12.487,0,0,0,1.258-1.384A14.049,14.049,0,0,0,54.969,2.042Z"></path><path d="M5.089,2.016a.07.07,0,0,0-.062.031,14.046,14.046,0,0,0-.04,17.337,12.551,12.551,0,0,0,1.257,1.385,4.48,4.48,0,0,0,4.134,1.117,4.6,4.6,0,0,0,3.326-2.8h0a4.291,4.291,0,0,0-1.755-5.234A14.807,14.807,0,0,1,8.4,10.913C5.533,7.258,5.1,4.089,5.234,2.075A.289.289,0,0,0,5.089,2.016Z"></path><path d="M20,31c-2.9,0-6,1.051-6,4,0,2.757,2.691,5,6,5s6-2.243,6-5C26,32.051,22.9,31,20,31Z"></path><path d="M32.358,41.981a1.43,1.43,0,0,0-2.716,0l-1.093,3a.777.777,0,0,0,.093.72.673.673,0,0,0,.56.3h3.6a.676.676,0,0,0,.56-.3.777.777,0,0,0,.093-.722Z"></path><path d="M36,35c0,2.757,2.691,5,6,5s6-2.243,6-5c0-2.949-3.1-4-6-4S36,32.051,36,35Z"></path><path d="M46.985,12.155c.386-.243.741-.485,1.074-.724C44.168,7.921,38.167,6,31,6c-7.633,0-14.072,2.258-17.885,6.232a6.34,6.34,0,0,1,2.454,7.575,6.593,6.593,0,0,1-4.757,4.031A6.794,6.794,0,0,1,9.346,24c-.112,0-.223-.01-.335-.016a48.324,48.324,0,0,0,1.248,11.149,3.871,3.871,0,0,1-.466,2.883A5.968,5.968,0,0,0,9,41a6.09,6.09,0,0,0,5.966,6A4.039,4.039,0,0,1,19,51v4.16a2,2,0,0,0,1.476,1.933c.157.042.334.085.524.128V54a1,1,0,0,1,2,0v3.43a.912.912,0,0,1-.028.138c1.054.142,2.376.266,4.028.344V55a1,1,0,0,1,2,0v2.95c0,.011-.006.019-.006.029.63.014,1.3.021,2.006.021s1.376-.007,2.006-.021c0-.01-.006-.018-.006-.029V55a1,1,0,0,1,2,0v2.912c1.652-.078,2.975-.2,4.028-.344A.912.912,0,0,1,39,57.43V54a1,1,0,0,1,2,0v3.221c.189-.043.365-.085.521-.127A2,2,0,0,0,43,55.16V51a4.039,4.039,0,0,1,4.034-4A6.162,6.162,0,0,0,53,41a5.972,5.972,0,0,0-.8-2.99,3.862,3.862,0,0,1-.465-2.869,49.112,49.112,0,0,0,1.255-11.573A6.568,6.568,0,0,1,50.655,24a6.734,6.734,0,0,1-1.467-.161,6.593,6.593,0,0,1-4.757-4.031A6.349,6.349,0,0,1,46.985,12.155ZM20,42c-4.411,0-8-3.141-8-7,0-3.645,3.141-6,8-6s8,2.355,8,6C28,38.859,24.411,42,20,42Zm15,4.848A2.692,2.692,0,0,1,32.8,48H29.2A2.69,2.69,0,0,1,27,46.846a2.786,2.786,0,0,1-.333-2.553l1.093-3a3.43,3.43,0,0,1,6.474,0l1.093,3A2.791,2.791,0,0,1,35,46.848ZM50,35c0,3.859-3.589,7-8,7s-8-3.141-8-7c0-3.645,3.141-6,8-6S50,31.355,50,35Z"></path></svg>