<svg xmlns="http://www.w3.org/2000/svg" viewBox="0 0 60 60" x="0px" y="0px"><rect x="48" y="6" width="2" height="48"></rect><rect x="10" y="6" width="2" height="48"></rect><path d="M8,57v1H52V57a1,1,0,0,0-1-1H9A1,1,0,0,0,8,57Z"></path><path d="M44,8a2,2,0,0,0,2-2H14a2,2,0,0,0,2,2H44Z"></path><path d="M29.293,40.293l-7,7A1,1,0,0,0,22,48v2H38V48a1,1,0,0,0-.293-.707l-7-7A1,1,0,0,0,29.293,40.293Z"></path><path d="M46,54a2,2,0,0,0-2-2H16a2,2,0,0,0-2,2Z"></path><path d="M8,3A1,1,0,0,0,9,4H51a1,1,0,0,0,1-1V2H8Z"></path><path d="M35.177,24.828A12.066,12.066,0,0,0,42,14V10H18v4a12.066,12.066,0,0,0,6.823,10.828,5.8,5.8,0,0,1,0,10.344A12.066,12.066,0,0,0,18,46v4h2V48a2.978,2.978,0,0,1,.879-2.121l7-7a3,3,0,0,1,4.242,0l7,7A2.978,2.978,0,0,1,40,48v2h2V46a12.066,12.066,0,0,0-6.823-10.828,5.8,5.8,0,0,1,0-10.344Zm-4.29,1.543a1,1,0,0,1-1.774,0,7.605,7.605,0,0,0-3.427-3.346A10.051,10.051,0,0,1,20,14a2,2,0,0,1,2-2H38a2,2,0,0,1,2,2,10.043,10.043,0,0,1-5.68,9.021A7.607,7.607,0,0,0,30.887,26.371Z"></path><path d="M38,14H22a8.042,8.042,0,0,0,4.549,7.22A9.528,9.528,0,0,1,30,24.049a9.53,9.53,0,0,1,3.458-2.832A8.037,8.037,0,0,0,38,14Z"></path></svg>