<svg xmlns="http://www.w3.org/2000/svg" viewBox="0 0 60 60" x="0px" y="0px"><path d="M4.95,46.846A1,1,0,0,1,5.1,48.251a5.983,5.983,0,0,0,9.3,7.537,1,1,0,0,1,.672-.364.987.987,0,0,1,.735.218,7.976,7.976,0,1,0,10.038-12.4,7.908,7.908,0,0,0-3.275-1.575,1,1,0,0,1-.562-1.6l3.1-3.831-3.093-2.509-3.1,3.829a1,1,0,0,1-1.687-.215A7.973,7.973,0,1,0,4.95,46.846Zm7.9,7.686,0,0a3.991,3.991,0,1,1-.584-5.615A3.985,3.985,0,0,1,12.845,54.535Zm11.737-9.741A5.987,5.987,0,0,1,21.438,55.4a6.1,6.1,0,0,1-.632.034,5.923,5.923,0,0,1-3.754-1.338,5.985,5.985,0,0,1,7.532-9.3ZM5.318,36.882a6,6,0,0,1,8.429-.875A5.984,5.984,0,0,1,10.6,46.6a6.269,6.269,0,0,1-.641.033,5.941,5.941,0,0,1-3.751-1.328A6.009,6.009,0,0,1,5.318,36.882Z"></path><path d="M30.908,30.671l-.005,0-4.65-3.77a1.009,1.009,0,0,0-1.389.141,1,1,0,0,0,.136,1.4l0,0,4.649,3.771C30.665,33.028,31.868,31.45,30.908,30.671Z"></path><path d="M22.491,31.539,27.14,35.31a1,1,0,1,0,1.253-1.547l-4.648-3.771a1,1,0,0,0-1.383.155.977.977,0,0,0,.125,1.389Z"></path><path d="M45.823,10.667a1,1,0,0,1,1.406-.147l8.52,6.9a1.01,1.01,0,0,0,1.4-.149l.626-.765a1.007,1.007,0,0,0-.147-1.413l-8.518-6.9a1,1,0,0,1-.147-1.408l1.26-1.55a2,2,0,0,0-.3-2.8,2.061,2.061,0,0,0-1.462-.421,2.031,2.031,0,0,0-1.345.722L28.293,25.976l3.09,2.506,8.79-10.844a1,1,0,0,1,1.405-.148l8.521,6.9a1.011,1.011,0,0,0,1.4-.143l.617-.768a1,1,0,0,0-.136-1.4L43.46,15.164a1,1,0,0,1-.147-1.406Z"></path></svg>