<svg xmlns="http://www.w3.org/2000/svg" viewBox="0 0 60 60" x="0px" y="0px"><path d="M49.109,8.162a1,1,0,0,1-.146-1.408L50.224,5.2a2,2,0,0,0-.3-2.807,2.127,2.127,0,0,0-2.8.293c-.012.016-7.257,8.987-21.52,26.647a1.993,1.993,0,0,1-2.746.351,12.337,12.337,0,0,0-1.186-.806,1.216,1.216,0,0,0-1.554.226l-2.1,2.393a1.971,1.971,0,0,1-1.378.642,1.936,1.936,0,0,1-1.392-.527,3.448,3.448,0,0,0-2.229-1.09,2.017,2.017,0,0,0-.47.056,3.778,3.778,0,0,0-2.991,2.746A3.256,3.256,0,0,1,8.243,35.3a23.749,23.749,0,0,0-4.5,4.018,7.884,7.884,0,0,0-1.52,7,14.709,14.709,0,0,0,4.8,7.867,14.7,14.7,0,0,0,8.4,3.782,7.917,7.917,0,0,0,6.75-2.382A23.988,23.988,0,0,0,25.6,50.619a3.176,3.176,0,0,1,1.794-1.565,3.411,3.411,0,0,0,1.576-1.208,3.319,3.319,0,0,0,.581-2.431,3.845,3.845,0,0,0-1.221-2.268,1.919,1.919,0,0,1-.192-2.709l2.114-2.387a1.218,1.218,0,0,0,.033-1.572,21.852,21.852,0,0,0-1.611-1.771,2,2,0,0,1-.143-2.663L40.172,17.614a1,1,0,0,1,1.408-.149l8.52,6.9a1,1,0,0,0,1.4-.142l.617-.768a1,1,0,0,0,.225-.743.978.978,0,0,0-.362-.661L43.46,15.136a1,1,0,0,1-.147-1.407l2.51-3.091a1,1,0,0,1,1.406-.148l8.52,6.9a1.031,1.031,0,0,0,.734.214.98.98,0,0,0,.666-.363l.626-.767a1.011,1.011,0,0,0-.147-1.416ZM19.289,39.015l.54-3.951a1,1,0,0,1,1.983.272L21.475,37.8l2.409-.638A1,1,0,0,1,24.4,39.1l-3.86,1.02a.978.978,0,0,1-.256.033,1,1,0,0,1-.991-1.135Zm-2.475,2.241-.009.01a3.548,3.548,0,0,1-2.684,1.149A4.789,4.789,0,0,1,9.48,38.1a3.413,3.413,0,0,1,3.288-3.717,4.629,4.629,0,0,1,3.287,1.2A4.083,4.083,0,0,1,16.814,41.256Zm8.3,7.334,0,0a3.524,3.524,0,0,1-2.679,1.151,4.646,4.646,0,0,1-3.051-1.194,4.094,4.094,0,0,1-.763-5.687,4.094,4.094,0,0,1,5.738.038,4.594,4.594,0,0,1,1.6,3.109A3.509,3.509,0,0,1,25.111,48.59Z"></path><path d="M13.009,36.379c-.041,0-.082,0-.123,0a1.413,1.413,0,0,0-1.409,1.59,2.6,2.6,0,0,0,.922,1.745,2.109,2.109,0,0,0,2.911.22,2.112,2.112,0,0,0-.58-2.856A2.634,2.634,0,0,0,13.009,36.379Z"></path><path d="M21.3,43.7a1.55,1.55,0,0,0-1.187.489,2.145,2.145,0,0,0,.584,2.861,2.138,2.138,0,0,0,2.911.221,1.529,1.529,0,0,0,.347-1.126,2.6,2.6,0,0,0-.923-1.739A2.683,2.683,0,0,0,21.3,43.7Z"></path></svg>