<svg xmlns="http://www.w3.org/2000/svg" viewBox="0 0 60 60" x="0px" y="0px"><path d="M28.578,19.757a2.983,2.983,0,0,1,2.844,0A13.906,13.906,0,0,0,38,21.038a17.228,17.228,0,0,0,5-.644V13.316A3.967,3.967,0,0,0,42.257,11l-3.28-4.591a3.954,3.954,0,0,0-1.629-1.325L30.813,2.174a1.984,1.984,0,0,0-1.625,0L22.656,5.08a3.956,3.956,0,0,0-1.632,1.326L17.743,11A3.967,3.967,0,0,0,17,13.316v7.078a17.217,17.217,0,0,0,5,.644A13.906,13.906,0,0,0,28.578,19.757ZM31,14.011a2.007,2.007,0,0,1,2.051-2h0a26.057,26.057,0,0,1,6.5.774A1.985,1.985,0,0,1,41,14.708V17a2,2,0,0,1-1.995,2,2.025,2.025,0,0,1-.469-.056,26.927,26.927,0,0,0-5.583-.576,2.007,2.007,0,0,1-1.953-2ZM21,19a2,2,0,0,1-2-2V14.708a1.985,1.985,0,0,1,1.448-1.924,26.057,26.057,0,0,1,6.5-.774h0a2.007,2.007,0,0,1,2.051,2v2.357a2.007,2.007,0,0,1-1.952,2,26.908,26.908,0,0,0-5.583.576A2.039,2.039,0,0,1,21,19Z"></path><path d="M15.373,22.064a.271.271,0,0,0-.1.262c.871,6.394,2.452,11.2,4.346,13.25l9.123,5.1a2.564,2.564,0,0,0,2.514,0l9.123-5.1c1.894-2.045,3.475-6.856,4.346-13.25a.271.271,0,0,0-.1-.262.213.213,0,0,0-.224-.034A18.016,18.016,0,0,1,38,23.038a15.768,15.768,0,0,1-7.529-1.521.968.968,0,0,0-.942,0A15.768,15.768,0,0,1,22,23.038a18.007,18.007,0,0,1-6.4-1.008A.216.216,0,0,0,15.373,22.064Zm24.641,3.772a1,1,0,1,1,1.972.328l-1,6A1,1,0,0,1,40,33a.927.927,0,0,1-.165-.014,1,1,0,0,1-.822-1.15Zm-4,.022a1,1,0,0,1,1.98.284l-1,7a1,1,0,0,1-1.98-.284Zm-4,.018a1,1,0,0,1,1.984.248l-1,8A1,1,0,0,1,32,35a1.063,1.063,0,0,1-.125-.008,1,1,0,0,1-.868-1.116Zm-5.132-.868a1,1,0,0,1,1.116.868l1,8a1,1,0,0,1-.868,1.116A1.063,1.063,0,0,1,28,35a1,1,0,0,1-.991-.876l-1-8A1,1,0,0,1,26.876,25.008Zm-4.018,0a1,1,0,0,1,1.132.848l1,7a1,1,0,0,1-1.98.284l-1-7A1,1,0,0,1,22.858,25.01Zm-4.022,0a.993.993,0,0,1,1.15.822l1,6a1,1,0,0,1-.822,1.15A.927.927,0,0,1,20,33a1,1,0,0,1-.985-.836l-1-6A1,1,0,0,1,18.836,25.014Z"></path><path d="M39,17l0-2.291a24.09,24.09,0,0,0-5.988-.7.017.017,0,0,0-.014.005l0,2.353A28.792,28.792,0,0,1,39,17Z"></path><path d="M21,14.706V17a28.774,28.774,0,0,1,6.01-.632l-.029-2.358A24.221,24.221,0,0,0,21,14.706Z"></path><path d="M29.625,53.94a1.3,1.3,0,0,0,.74,0A26.3,26.3,0,0,0,46.583,38.871a10.3,10.3,0,0,0-4.79-1.886c-.026.028-.051.061-.077.088a.994.994,0,0,1-.229.175l-9.256,5.17a4.547,4.547,0,0,1-4.462,0l-9.256-5.17a.994.994,0,0,1-.229-.175c-.026-.027-.051-.06-.077-.088a10.294,10.294,0,0,0-4.79,1.886A26.292,26.292,0,0,0,29.625,53.94Z"></path><path d="M11.681,40.274a2.145,2.145,0,0,0-.543,2.323c1.316,3.447,5.654,11.838,17.426,15.2a5.208,5.208,0,0,0,2.871,0c11.773-3.363,16.111-11.754,17.428-15.2a2.145,2.145,0,0,0-.55-2.325c-.038-.037-.076-.064-.115-.1A28.192,28.192,0,0,1,31,55.839a3.111,3.111,0,0,1-.99.156,3.374,3.374,0,0,1-1.006-.152A28.206,28.206,0,0,1,11.8,40.169C11.761,40.207,11.721,40.236,11.681,40.274Z"></path></svg>