<svg xmlns="http://www.w3.org/2000/svg" viewBox="0 0 60 60" x="0px" y="0px"><path d="M27.6,38.2a1,1,0,0,1,.4.8v5a2,2,0,0,0,4,0V39a1,1,0,0,1,.4-.8,4,4,0,1,0-4.8,0Z"></path><path d="M13.444,26.794c-.319.47-.612.96-.891,1.458A4.99,4.99,0,0,0,21.9,27.009a3.936,3.936,0,0,1,2.134-2.833A13.779,13.779,0,0,1,30,23a13.8,13.8,0,0,1,5.971,1.178A3.938,3.938,0,0,1,38.1,27.007a4.99,4.99,0,0,0,9.347,1.245c-.279-.5-.572-.988-.891-1.458a3.988,3.988,0,1,1-5.35-5.35,19.953,19.953,0,0,0-22.412,0,3.988,3.988,0,1,1-5.35,5.35Z"></path><path d="M11.526,30.353A19.394,19.394,0,0,0,10.25,41H16a5.006,5.006,0,0,1,5,5v2a3,3,0,0,0,3,3H36a3,3,0,0,0,3-3V46a5.006,5.006,0,0,1,5-5h5.75a19.394,19.394,0,0,0-1.276-10.647,7,7,0,0,1-12.333-2.942,1.968,1.968,0,0,0-1.028-1.427A11.811,11.811,0,0,0,30,25a11.808,11.808,0,0,0-5.109.982,1.97,1.97,0,0,0-1.032,1.43,7,7,0,0,1-12.333,2.941ZM30,29a6,6,0,0,1,4,10.471V44a4,4,0,0,1-8,0V39.471A6,6,0,0,1,30,29Z"></path><path d="M44,43a3,3,0,0,0-3,3v2a5.006,5.006,0,0,1-5,5H24a5.006,5.006,0,0,1-5-5V46a3,3,0,0,0-3-3H10.658a19.97,19.97,0,0,0,38.684,0Z"></path><path d="M15,25a2,2,0,1,0,1.786-1.973,19.977,19.977,0,0,0-1.758,1.758A1.684,1.684,0,0,0,15,25Z"></path><path d="M41,25a2,2,0,0,0,4,0,1.732,1.732,0,0,0-.028-.215,20.126,20.126,0,0,0-1.758-1.759A2,2,0,0,0,41,25Z"></path><path d="M16.033,21.015a22.3,22.3,0,0,1,1.984-1.451C18.192,10.945,23.494,4,30,4s11.808,6.945,11.983,15.564a22.3,22.3,0,0,1,1.984,1.451c.015-.339.033-.679.033-1.015,0-9.925-6.28-18-14-18S16,10.075,16,20C16,20.337,16.018,20.676,16.033,21.015Z"></path></svg>