<svg xmlns="http://www.w3.org/2000/svg" viewBox="0 0 60 60" x="0px" y="0px"><path d="M48.09,13.269a3,3,0,0,0-.455-.384l-16-10.4A3.036,3.036,0,0,0,31,2.18V4.457l15.072,9.8Z"></path><path d="M49,44.6V15.4a3.035,3.035,0,0,0-.041-.33L47,16.025v27.95l1.959.955A3.035,3.035,0,0,0,49,44.6Z"></path><path d="M47.635,47.115a3,3,0,0,0,.455-.384l-2.019-.985L31,55.543V57.82a2.983,2.983,0,0,0,.635-.3Z"></path><path d="M11.91,46.731a3,3,0,0,0,.455.384l16,10.4a3.036,3.036,0,0,0,.635.3V55.543l-15.072-9.8Z"></path><path d="M11,15.4V44.6a3.035,3.035,0,0,0,.041.33L13,43.975V16.025l-1.959-.955A3.035,3.035,0,0,0,11,15.4Z"></path><path d="M12.365,12.885a3,3,0,0,0-.455.384l2.019.985L29,4.457V2.18a2.983,2.983,0,0,0-.635.3Z"></path><path d="M31,45V28.82a1,1,0,0,1,.293-.707L39.7,19.7a.983.983,0,0,0,0-1.4,1.032,1.032,0,0,0-1.41,0l-5.59,5.59A1,1,0,0,1,31,23.18V15a1.084,1.084,0,0,0-1-1,1,1,0,0,0-1,1v8.18a1,1,0,0,1-1.707.707L25.92,22.514q-1.547-1.548-3.094-3.094c-.591-.592-1.607-2.031-2.524-1.127a.981.981,0,0,0-.009,1.405l8.414,8.415A1,1,0,0,1,29,28.82V45a1,1,0,0,0,2,0Z"></path><path d="M45,44.057V15.942L30,6.192,15,15.943V44.058l15,9.75ZM27,45V29.234l-8.117-8.117a2.994,2.994,0,1,1,4.239-4.23L27,20.766V15a3,3,0,0,1,3-3,3.079,3.079,0,0,1,3,3v5.766l3.883-3.883a2.994,2.994,0,1,1,4.231,4.237L33,29.234V45a3,3,0,0,1-6,0Z"></path></svg>