<svg xmlns="http://www.w3.org/2000/svg" viewBox="0 0 60 60" x="0px" y="0px"><circle cx="55" cy="56" r="2"></circle><path d="M6,52.14V50H4v2.14A4.091,4.091,0,0,1,5,52,4.091,4.091,0,0,1,6,52.14Z"></path><path d="M54,7.86V10h2V7.86a3.641,3.641,0,0,1-2,0Z"></path><circle cx="55" cy="4" r="2"></circle><path d="M4,7.86V10H6V7.86A4.091,4.091,0,0,1,5,8,4.091,4.091,0,0,1,4,7.86Z"></path><path d="M56,52.14V50H54v2.14a3.641,3.641,0,0,1,2,0Z"></path><path d="M8,28a5,5,0,0,1,5-5,2.006,2.006,0,0,0,2-2,4,4,0,0,1,4-4,2.006,2.006,0,0,0,2-2V12H19.92a2.021,2.021,0,0,0-1.12.34l-3.39,2.29a2.173,2.173,0,0,1-2.24.11A2.2,2.2,0,0,1,12,12.79a.785.785,0,0,0-.79-.79H3a1,1,0,0,0-1,1V30H6A2.006,2.006,0,0,0,8,28Z"></path><path d="M55,29.12l-.46,1.84a6.092,6.092,0,0,1-3.2,3.99,6.211,6.211,0,0,0-2.57,2.38C47.33,39.73,45.37,41,43.1,41a4.09,4.09,0,0,0-4.01,3.22L38.25,48h1.83a2.021,2.021,0,0,0,1.12-.34l3.39-2.29A2.159,2.159,0,0,1,45.81,45a2.065,2.065,0,0,1,1.02.26A2.2,2.2,0,0,1,48,47.21a.785.785,0,0,0,.79.79H57a1,1,0,0,0,1-1V26.14A4.106,4.106,0,0,0,55,29.12Z"></path><circle cx="5" cy="4" r="2"></circle><path d="M57,12H48.79a.785.785,0,0,0-.79.79,2.2,2.2,0,0,1-1.17,1.95,2.173,2.173,0,0,1-2.24-.11L41.2,12.34A2.021,2.021,0,0,0,40.08,12H34.45a2.02,2.02,0,0,0-1.57.76l-1.09,1.38a2.361,2.361,0,0,1-3.58,0l-1.09-1.38A2.02,2.02,0,0,0,25.55,12H23v3a4,4,0,0,1-4,4,2.006,2.006,0,0,0-2,2,4,4,0,0,1-4,4,3.009,3.009,0,0,0-3,3,4,4,0,0,1-4,4H2V47a1,1,0,0,0,1,1h8.21a.785.785,0,0,0,.79-.79,2.2,2.2,0,0,1,1.17-1.95,2.173,2.173,0,0,1,2.24.11l3.39,2.29a2.021,2.021,0,0,0,1.12.34h5.63a2.02,2.02,0,0,0,1.57-.76l1.09-1.38a2.341,2.341,0,0,1,3.58,0l1.09,1.38a2.02,2.02,0,0,0,1.57.76H36.2l.93-4.21A6.081,6.081,0,0,1,43.1,39c1.55,0,2.88-.91,3.95-2.7a8.3,8.3,0,0,1,3.4-3.14,4.13,4.13,0,0,0,2.15-2.69l.46-1.83A6.13,6.13,0,0,1,58,24.08V13A1,1,0,0,0,57,12ZM15,29H14a1,1,0,0,1,0-2h1a1,1,0,0,1,0,2Zm5,0H19a1,1,0,0,1,0-2h1a1,1,0,0,1,0,2Zm7,1a1,1,0,0,1,1,1v1a1,1,0,0,1-2,0V31A1,1,0,0,1,27,30Zm-2-1H24a1,1,0,0,1,0-2h1a1,1,0,0,1,0,2Zm2.77,8.87a1.013,1.013,0,0,1-1.37-.37A3.006,3.006,0,0,1,26,36a1,1,0,0,1,2,0,1.063,1.063,0,0,0,.13.5A1,1,0,0,1,27.77,37.87ZM32,39H31a1,1,0,0,1,0-2h1a1,1,0,0,1,0,2Zm5.6-1.5a3.052,3.052,0,0,1-1.1,1.1,1.013,1.013,0,0,1-1.37-.37,1,1,0,0,1,.37-1.36,1.091,1.091,0,0,0,.37-.37.988.988,0,0,1,1.36-.37A1,1,0,0,1,37.6,37.5ZM38,33a1,1,0,0,1-2,0V32a1,1,0,0,1,2,0Zm2.71-4.29-1,1a1.014,1.014,0,0,1-1.42,0,1.008,1.008,0,0,1,0-1.42l1-1a1,1,0,0,1,1.42,1.42Zm7-4.42a1.008,1.008,0,0,1,0,1.42,1.014,1.014,0,0,1-1.42,0L45,24.41l-1.29,1.3a1.014,1.014,0,0,1-1.42,0,1.008,1.008,0,0,1,0-1.42L43.59,23l-1.3-1.29a1,1,0,0,1,1.42-1.42L45,21.59l1.29-1.3a1,1,0,0,1,1.42,1.42L46.41,23Z"></path><circle cx="5" cy="56" r="2"></circle></svg>