<svg xmlns="http://www.w3.org/2000/svg" viewBox="0 0 60 60" x="0px" y="0px"><path d="M27.741,16.537a5.026,5.026,0,0,1,4.518,0l3.553,1.793,8.918-9.5A1,1,0,0,0,45,8.084a.975.975,0,0,0-.336-.69l-5.73-5.011L23.271,18.792Z"></path><path d="M49,29.05a2.962,2.962,0,0,0-1.642-2.657l-16-8.071a3.033,3.033,0,0,0-2.716,0l-16,8.071A2.963,2.963,0,0,0,11,29.05v17.9a2.962,2.962,0,0,0,1.642,2.657l16,8.071a3.039,3.039,0,0,0,2.716,0l16-8.071A2.963,2.963,0,0,0,49,46.95ZM43.8,48.092,31.793,54.143a4.022,4.022,0,0,1-3.6,0L16.208,48.111a3.976,3.976,0,0,1-2.2-3.572L14,31.481a3.971,3.971,0,0,1,2.193-3.57l12.011-6.057a4.011,4.011,0,0,1,3.593,0l11.994,6.035a3.977,3.977,0,0,1,2.2,3.572L46,44.519A3.981,3.981,0,0,1,43.8,48.092Z"></path><rect x="28" y="31" width="4" height="14" rx="1"></rect><path d="M42.894,29.676,30.9,23.642a2,2,0,0,0-1.794,0L17.1,29.7A1.982,1.982,0,0,0,16,31.479h0l0,13.059a1.988,1.988,0,0,0,1.1,1.785l11.987,6.033a2.008,2.008,0,0,0,1.8,0L42.9,46.307A1.991,1.991,0,0,0,44,44.52l-.005-13.059A1.988,1.988,0,0,0,42.894,29.676ZM34,44a3,3,0,0,1-3,3H29a3,3,0,0,1-3-3V32a3,3,0,0,1,3-3h2a3,3,0,0,1,3,3Z"></path><polygon points="30.002 8.843 36.533 2 23.468 2 30.002 8.843"></polygon><path d="M15.338,7.393A.977.977,0,0,0,15,8.084a1.006,1.006,0,0,0,.272.745l7.308,7.79,6.038-6.327L21.067,2.383Z"></path></svg>