<svg xmlns="http://www.w3.org/2000/svg" viewBox="0 0 60 60" x="0px" y="0px"><path d="M30,32a3,3,0,0,0-2.816,2h5.632A3,3,0,0,0,30,32Z"></path><polygon points="38 50.953 41 52.687 41 41.313 38 43.047 38 50.953"></polygon><polygon points="26.047 39 33.953 39 35.687 36 24.313 36 26.047 39"></polygon><path d="M27,26.858V24.837C14.029,23.576,4,14.137,4,3A1,1,0,0,0,2,3C2,15.258,12.9,25.563,27,26.858Z"></path><path d="M57,2a1,1,0,0,0-1,1c0,11.137-10.029,20.576-23,21.837v2.021C47.1,25.563,58,15.258,58,3A1,1,0,0,0,57,2Z"></path><polygon points="35.78 39.837 37.163 41.22 40.389 39.355 37.645 36.611 35.78 39.837"></polygon><polygon points="33.953 55 26.047 55 24.313 58 35.687 58 33.953 55"></polygon><polygon points="22.355 57.389 24.22 54.163 22.837 52.78 19.611 54.645 22.355 57.389"></polygon><polygon points="19 52.687 22 50.953 22 43.047 19 41.313 19 52.687"></polygon><polygon points="40.389 54.645 37.163 52.78 35.78 54.163 37.645 57.389 40.389 54.645"></polygon><polygon points="22.355 36.611 19.611 39.355 22.837 41.22 24.22 39.837 22.355 36.611"></polygon><polygon points="25.885 41 24 42.885 24 51.115 25.885 53 34.115 53 36 51.115 36 42.885 34.115 41 25.885 41"></polygon><path d="M31,29V23a1,1,0,0,0-2,0v6a1,1,0,0,0,2,0Z"></path></svg>