<svg xmlns="http://www.w3.org/2000/svg" viewBox="0 0 60 60" x="0px" y="0px"><path d="M30,10a3,3,0,0,0,2.816-2H27.184A3,3,0,0,0,30,10Z"></path><path d="M13.08,58H20.6A1.41,1.41,0,0,0,22,56.6V53.37a5,5,0,0,1,.886-2.837A11.975,11.975,0,0,0,24.5,46.857l-.612-.817L22.53,47.414A2.027,2.027,0,0,1,20.943,48a1.99,1.99,0,0,1-1.439-.8l-1.7-2.27-.761.57a39.088,39.088,0,0,0,.6,8.841,1.011,1.011,0,0,1-.9,1.2l-3.75.31A1.078,1.078,0,0,0,12,56.92,1.093,1.093,0,0,0,13.08,58Z"></path><path d="M40.264,15.468l-.385-.127C39.018,20.559,33.2,22,30,22a12.323,12.323,0,0,1-7.463-2.447A12.053,12.053,0,0,0,29,26.9V25a1,1,0,0,1,2,0v2.605A11.926,11.926,0,0,0,34,28H44.341a11.706,11.706,0,0,0-1.178-3.453A1.032,1.032,0,0,1,43,24V19.26A4,4,0,0,0,40.264,15.468Z"></path><path d="M29.651,29.3c-.021-.008-.042-.014-.062-.023A14.049,14.049,0,0,1,22,23.174V24a9.01,9.01,0,0,0,9,9H44.948q-.074-1.576-.267-3H34A13.941,13.941,0,0,1,29.651,29.3Z"></path><path d="M25.49,44.841,27.109,47l1.472-1.475a2.054,2.054,0,0,1,2.837,0l1.471,1.481,1.621-2.164a1.985,1.985,0,0,1,1.438-.788,2.031,2.031,0,0,1,1.571.571l1.371,1.382L40.6,43.72a2,2,0,0,1,2.8-.4l1.6,1.2V35H31A11.013,11.013,0,0,1,20,24V15.382l-.268.088A3.993,3.993,0,0,0,17,19.26V24a1.006,1.006,0,0,1-.168.555C16.818,24.576,15,27.5,15,35v9.52l1.6-1.2a2,2,0,0,1,2.8.4L21.109,46l1.361-1.363a2.04,2.04,0,0,1,1.582-.583A1.985,1.985,0,0,1,25.49,44.841Z"></path><path d="M38.423,57.59A1.4,1.4,0,0,0,39.4,58h7.52A1.092,1.092,0,0,0,48,56.92a1.08,1.08,0,0,0-.993-1.084l-3.749-.309a1.02,1.02,0,0,1-.9-1.2,38.942,38.942,0,0,0,.6-8.842l-.76-.57L40.49,47.2a1.987,1.987,0,0,1-1.433.8,2.032,2.032,0,0,1-1.576-.57L36.11,46.044l-.613.815a11.99,11.99,0,0,0,1.617,3.675A4.993,4.993,0,0,1,38,53.37V56.6A1.4,1.4,0,0,0,38.423,57.59Z"></path><path d="M49.835,37.584A30.02,30.02,0,0,0,51,29c0-6.225-3.314-8.036-3.456-8.11A1.014,1.014,0,0,1,47,20a3,3,0,0,0-2.437-2.943A5.966,5.966,0,0,1,45,19.26v4.469a16.578,16.578,0,0,1,1.536,5.108A38.014,38.014,0,0,1,47,35v4h.92A2,2,0,0,0,49.835,37.584Z"></path><path d="M13,35c0-6.942,1.487-10.312,2-11.267V19.26a5.966,5.966,0,0,1,.437-2.2A3,3,0,0,0,13,20a1,1,0,0,1-.553.895C12.314,20.964,9,22.775,9,29a30,30,0,0,0,1.168,8.592A1.993,1.993,0,0,0,12.08,39H13Z"></path><path d="M41.714,7.094a.613.613,0,0,0-.6-.028L39.449,7.9A1,1,0,0,1,38,7.01C38,4.29,34.337,2,30,2s-8,2.29-8,5a1,1,0,0,1-1.449.9l-1.67-.84A.6.6,0,0,0,18.613,7a.638.638,0,0,0-.327.1A.6.6,0,0,0,18,7.61V11a2,2,0,0,0,2,2h1a1,1,0,0,1,1,1c0,5.909,7.675,6,8,6s8-.091,8-6a1,1,0,0,1,1-1h1a2,2,0,0,0,2-2V7.61A.6.6,0,0,0,41.714,7.094Zm-7.007,9.613a1,1,0,0,1-1.414,0A5.57,5.57,0,0,0,30,16c-2.444,0-3.31.724-3.318.731a1.019,1.019,0,0,1-1.4-.062.985.985,0,0,1,.012-1.376C25.509,15.077,26.75,14,30,14s4.491,1.077,4.707,1.293A1,1,0,0,1,34.707,16.707ZM35,8h-.1a5,5,0,0,1-9.8,0H25a1,1,0,0,1,0-2H35a1,1,0,0,1,0,2Z"></path></svg>