<svg xmlns="http://www.w3.org/2000/svg" viewBox="0 0 60 60" x="0px" y="0px"><circle cx="35" cy="42" r="1"></circle><circle cx="26" cy="38" r="1"></circle><circle cx="27" cy="48" r="1"></circle><path d="M32,2H28a1,1,0,0,0-1,1V5h6V3A1,1,0,0,0,32,2Z"></path><path d="M36,7H24a1,1,0,0,0,0,2H36a1,1,0,0,0,0-2Z"></path><path d="M39.2,30.782a7.573,7.573,0,0,1-2.77-1.482,5.063,5.063,0,0,0-6.771,0,6.841,6.841,0,0,1-4.6,1.7,6.387,6.387,0,0,1-3.621-1.016A.971.971,0,0,0,20,30.835V50a4,4,0,0,0,4,4H36a4,4,0,0,0,4-4V31.724A1,1,0,0,0,39.2,30.782ZM23,38a3,3,0,1,1,3,3A3,3,0,0,1,23,38Zm4,13a3,3,0,1,1,3-3A3,3,0,0,1,27,51Zm8-6a3,3,0,1,1,3-3A3,3,0,0,1,35,45Z"></path><path d="M38.529,16.408A5.042,5.042,0,0,1,35,11.675V11H25v.675a5.042,5.042,0,0,1-3.529,4.733A7.988,7.988,0,0,0,16,24V50a8.009,8.009,0,0,0,8,8H36a8.009,8.009,0,0,0,8-8V24A7.988,7.988,0,0,0,38.529,16.408ZM42,50a6.006,6.006,0,0,1-6,6H24a6.006,6.006,0,0,1-6-6V30.835a2.99,2.99,0,0,1,4.51-2.54,4.4,4.4,0,0,0,2.55.7,4.894,4.894,0,0,0,3.4-1.3,7.04,7.04,0,0,1,9.175,0,5.731,5.731,0,0,0,2.072,1.145A3.008,3.008,0,0,1,42,31.724Z"></path></svg>