<svg xmlns="http://www.w3.org/2000/svg" viewBox="0 0 60 60" x="0px" y="0px"><path d="M32,2H28a1,1,0,0,0-1,1V5h6V3A1,1,0,0,0,32,2Z"></path><path d="M22,7a1,1,0,0,0,0,2H38a1,1,0,0,0,0-2H22Z"></path><path d="M14,54H46a1,1,0,0,0,1-1V21a1,1,0,0,0-1-1H14a1,1,0,0,0-1,1V53A1,1,0,0,0,14,54ZM30,22c7.168,0,13,4.486,13,10a23.342,23.342,0,0,1-.707,5.885,1.085,1.085,0,0,0,.124.767A5.271,5.271,0,0,1,41.9,44.27,4.36,4.36,0,0,1,38,46.006v2.572a3,3,0,0,1-2.474,2.954,33.068,33.068,0,0,1-11.052,0A3,3,0,0,1,22,48.578V46a5.279,5.279,0,0,1-3.259-1.256,4.989,4.989,0,0,1-1.157-6.092,1.071,1.071,0,0,0,.123-.763A23.373,23.373,0,0,1,17,32C17,26.486,22.832,22,30,22Z"></path><path d="M9,20V54a4,4,0,0,0,4,4H47a4,4,0,0,0,4-4V20a4,4,0,0,0-4-4H38a3,3,0,0,1-3-3V11H25v2a3,3,0,0,1-3,3H13A4,4,0,0,0,9,20Zm37-2a3,3,0,0,1,3,3V53a3,3,0,0,1-3,3H14a3,3,0,0,1-3-3V21a3,3,0,0,1,3-3Z"></path><ellipse cx="25" cy="38.5" rx="2" ry="1.5"></ellipse><ellipse cx="35" cy="38.5" rx="2" ry="1.5"></ellipse><path d="M19.351,39.587a3.012,3.012,0,0,0,.689,3.633,3.285,3.285,0,0,0,2.113.78A1.846,1.846,0,0,1,24,45.83v2.748a1,1,0,0,0,.826.985,30.889,30.889,0,0,0,10.349,0A1,1,0,0,0,36,48.578V45.83a1.839,1.839,0,0,1,.566-1.325,1.882,1.882,0,0,1,1.351-.5,2.7,2.7,0,0,0,2.346-.877,3.255,3.255,0,0,0,.386-3.537h0a3.069,3.069,0,0,1-.292-2.207A21.309,21.309,0,0,0,41,32c0-4.411-4.935-8-11-8s-11,3.589-11,8a21.321,21.321,0,0,0,.643,5.38A3.061,3.061,0,0,1,19.351,39.587ZM35,35a3.779,3.779,0,0,1,4,3.5A3.779,3.779,0,0,1,35,42a3.779,3.779,0,0,1-4-3.5A3.779,3.779,0,0,1,35,35Zm-4.168,6.445,2,3a1,1,0,0,1-1.664,1.11L30,43.8l-1.168,1.752a1,1,0,1,1-1.664-1.11l2-3A1.039,1.039,0,0,1,30.832,41.445ZM25,35a3.779,3.779,0,0,1,4,3.5A3.779,3.779,0,0,1,25,42a3.779,3.779,0,0,1-4-3.5A3.779,3.779,0,0,1,25,35Z"></path></svg>