<svg xmlns="http://www.w3.org/2000/svg" viewBox="0 0 60 60" x="0px" y="0px"><path d="M32,2H28a1,1,0,0,0-1,1V5h6V3A1,1,0,0,0,32,2Z"></path><circle cx="29" cy="46" r="1"></circle><circle cx="20.5" cy="38.5" r="1.5"></circle><circle cx="37" cy="38" r="1"></circle><path d="M9,37A21,21,0,1,0,35.728,16.792,1,1,0,0,1,35,15.83V11H25v4.83a1,1,0,0,1-.728.962A21.073,21.073,0,0,0,9,37ZM30,18A19,19,0,1,1,11,37,19.021,19.021,0,0,1,30,18Z"></path><path d="M21,8a1,1,0,0,0,1,1H38a1,1,0,0,0,0-2H22A1,1,0,0,0,21,8Z"></path><path d="M30,54A17,17,0,0,0,46.238,31.966,10.161,10.161,0,0,1,40.6,29.827a8.519,8.519,0,0,0-10.538,0A10.071,10.071,0,0,1,23.66,32a10.073,10.073,0,0,1-6.4-2.173,12.437,12.437,0,0,0-2.036-1.207A16.975,16.975,0,0,0,30,54Zm7-19a3,3,0,1,1-3,3A3,3,0,0,1,37,35Zm-8,8a3,3,0,1,1-3,3A3,3,0,0,1,29,43Zm-8.5-8A3.5,3.5,0,1,1,17,38.5,3.5,3.5,0,0,1,20.5,35Z"></path><path d="M23.66,30a8.084,8.084,0,0,0,5.276-1.826,10.5,10.5,0,0,1,12.8,0,8.594,8.594,0,0,0,3.677,1.693,16.954,16.954,0,0,0-29.081-2.936,15.7,15.7,0,0,1,2.062,1.242A8.073,8.073,0,0,0,23.66,30Z"></path></svg>