<svg xmlns="http://www.w3.org/2000/svg" viewBox="0 0 60 60" x="0px" y="0px"><rect x="28" y="15" width="4" height="14" rx="1"></rect><path d="M43.451,57.889A.98.98,0,0,0,44,57V37.541L32.259,43.463a5.037,5.037,0,0,1-4.518,0L16,37.541V57a1,1,0,0,0,1.588.8l11.82-8.671a1,1,0,0,1,1.184,0l11.82,8.67A.976.976,0,0,0,43.451,57.889Z"></path><path d="M49,30.95V13.05a2.963,2.963,0,0,0-1.642-2.657l-16-8.071a3.033,3.033,0,0,0-2.716,0l-16,8.071A2.963,2.963,0,0,0,11,13.05v17.9a2.963,2.963,0,0,0,1.642,2.657l16,8.071a3.039,3.039,0,0,0,2.716,0l16-8.071A2.963,2.963,0,0,0,49,30.95Zm-5.194,1.139L31.8,38.146A3.97,3.97,0,0,1,30,38.571a4.018,4.018,0,0,1-1.8-.425L16.208,32.111a3.977,3.977,0,0,1-2.2-3.572L14,15.481a3.981,3.981,0,0,1,2.2-3.573L28.207,5.857a4.02,4.02,0,0,1,3.6,0l11.986,6.034a3.976,3.976,0,0,1,2.2,3.572L46,28.519A3.971,3.971,0,0,1,43.806,32.089Z"></path><path d="M42.894,13.676,30.907,7.643a2.008,2.008,0,0,0-1.8,0L17.1,13.693A1.991,1.991,0,0,0,16,15.48l0,13.059a1.988,1.988,0,0,0,1.1,1.785L29.1,36.358a2,2,0,0,0,1.794,0L42.905,30.3A1.982,1.982,0,0,0,44,28.521h0l-.005-13.059A1.988,1.988,0,0,0,42.894,13.676ZM34,28a3,3,0,0,1-3,3H29a3,3,0,0,1-3-3V16a3,3,0,0,1,3-3h2a3,3,0,0,1,3,3Z"></path></svg>