<svg xmlns="http://www.w3.org/2000/svg" viewBox="0 0 60 60" x="0px" y="0px"><rect x="52" y="39" width="5" height="10"></rect><path d="M10,35.444V49a3,3,0,0,0,3,3H47a3,3,0,0,0,3-3V35.444A3.959,3.959,0,0,1,48,36V47a3,3,0,0,1-3,3H15a3,3,0,0,1-3-3V36A3.959,3.959,0,0,1,10,35.444Z"></path><path d="M36,8H24a6.006,6.006,0,0,0-6,6v2h2V14a4,4,0,0,1,4-4H36a4,4,0,0,1,4,4v2h2V14A6.006,6.006,0,0,0,36,8Z"></path><rect x="3" y="39" width="5" height="10"></rect><path d="M30,44a2,2,0,0,0,2-2H28A2,2,0,0,0,30,44Z"></path><path d="M14,29a1,1,0,0,0,1,1H26V18H14Z"></path><path d="M34,30H45a1,1,0,0,0,1-1V18H34Z"></path><path d="M26.184,36H24v1a3,3,0,0,0,3,3h6a3,3,0,0,0,3-3V36H33.816A3,3,0,0,1,31,38H29A3,3,0,0,1,26.184,36Z"></path><path d="M31,36a1,1,0,0,0,1-1V18H28V35a1,1,0,0,0,1,1Z"></path><path d="M14,36V47a1,1,0,0,0,1,1H45a1,1,0,0,0,1-1V36H38v1a5.009,5.009,0,0,1-4,4.9V42a4,4,0,0,1-8,0v-.1A5.009,5.009,0,0,1,22,37V36Z"></path><path d="M48,18.184V29a3,3,0,0,1-3,3H34v2H48a2,2,0,0,0,2-2V21A3,3,0,0,0,48,18.184Z"></path><path d="M57,32H52v5h6V33A1,1,0,0,0,57,32Z"></path><path d="M8,32H3a1,1,0,0,0-1,1v4H8Z"></path><path d="M10,21V32a2,2,0,0,0,2,2H26V32H15a3,3,0,0,1-3-3V18.184A3,3,0,0,0,10,21Z"></path></svg>