<svg xmlns="http://www.w3.org/2000/svg" viewBox="0 0 60 60" x="0px" y="0px"><path d="M20,45.093a34.975,34.975,0,0,0,9,7.944V6.913l-9,4.718Z"></path><path d="M31,53.026a34.929,34.929,0,0,0,9-7.938V11.633l-9-4.72Z"></path><path d="M42,42.38c3.9-5.774,7.244-14,7.928-25.541L42,12.682Z"></path><path d="M18,42.383V12.68l-7.928,4.156C10.756,28.384,14.1,36.608,18,42.383Z"></path><path d="M53.457,14.17l-23-12.057a1.027,1.027,0,0,0-.917,0l-23,12.057A1.009,1.009,0,0,0,6,15.087C6.1,20.341,7.684,47.1,29.566,57.9a1.008,1.008,0,0,0,.868,0C52.316,47.1,53.9,20.341,54,15.086A1.008,1.008,0,0,0,53.457,14.17ZM30.977,55.361a2.115,2.115,0,0,1-1.956,0c-5.8-3.2-19.461-13.34-20.945-38.4a2.007,2.007,0,0,1,1.068-1.894L29.072,4.617a2,2,0,0,1,1.857,0L50.855,15.064a2.007,2.007,0,0,1,1.069,1.894C50.439,42.023,36.78,52.165,30.977,55.361Z"></path></svg>