<svg xmlns="http://www.w3.org/2000/svg" viewBox="0 0 60 60" x="0px" y="0px"><path d="M30,53A19,19,0,1,0,11,34,19.021,19.021,0,0,0,30,53Zm1-3a1,1,0,0,1-2,0V47a1,1,0,0,1,2,0ZM43,33h3a1,1,0,0,1,0,2H43a1,1,0,0,1,0-2ZM29,18a1,1,0,0,1,2,0v3a1,1,0,0,1-2,0Zm-.464,6.993a1.576,1.576,0,0,1,2.928,0c1.157,2.9,2.536,6.82,2.536,9.023a4,4,0,0,1-8,0C26,31.812,27.379,27.893,28.536,24.993ZM14,33h3a1,1,0,0,1,0,2H14a1,1,0,0,1,0-2Z"></path><path d="M30,36a2,2,0,0,0,2-1.985,25.953,25.953,0,0,0-2-7.275,25.953,25.953,0,0,0-2,7.275A2,2,0,0,0,30,36Z"></path><rect x="25" y="2" width="10.001" height="2"></rect><path d="M30,8c.674,0,1.339.034,2,.085V6H28V8.085C28.661,8.034,29.326,8,30,8Z"></path><path d="M30,58A24,24,0,1,0,6,34,24.028,24.028,0,0,0,30,58Zm0-45A21,21,0,1,1,9,34,21.024,21.024,0,0,1,30,13Z"></path></svg>