<svg xmlns="http://www.w3.org/2000/svg" viewBox="0 0 60 60" x="0px" y="0px"><path d="M38.119,9.292c-1.991,1.887-2.423,4.713-1.21,7.772l7.979,8.416a7.6,7.6,0,0,0,2.783.574H47.7A8.836,8.836,0,0,0,53.6,23.4c3.448-3.263,4.26-6.511,4.378-8.511-4.026,3.467-7.174,1.492-7.318,1.4a1,1,0,0,1,.309-1.81,9.254,9.254,0,0,0,4.149-2.366c3.167-3,2.256-6.659,1.147-8.96A8.507,8.507,0,0,1,53.924,6.8a7.577,7.577,0,0,1-6.26,2.454,5.669,5.669,0,0,0-3.329.674,3.806,3.806,0,0,0-1.3,1.218,1.02,1.02,0,0,1-.865.526H42.15a1.01,1.01,0,0,1-.956-.7,6.023,6.023,0,0,1,1.928-4.461A10.457,10.457,0,0,0,38.119,9.292Z"></path><path d="M33.375,16.841a.89.89,0,0,0-.672.542l-2.558,6.156,7.7,8.119,6.286-2.226a.9.9,0,0,0,.354-1.475L34.2,17.107A.885.885,0,0,0,33.375,16.841Z"></path><path d="M25.905,25.117l10.133,10.69a1,1,0,0,0,1.414.037l.12-.114a1,1,0,0,0,.035-1.412L27.475,23.629C26.555,22.663,25.026,24.189,25.905,25.117Z"></path><path d="M2.465,57.466a1.714,1.714,0,0,0,1.2.535,1.86,1.86,0,0,0,1.147-.41L31.981,34.433,27.06,29.241,2.46,55.134A1.7,1.7,0,0,0,2.465,57.466Z"></path></svg>