<svg xmlns="http://www.w3.org/2000/svg" viewBox="0 0 60 60" x="0px" y="0px"><rect x="7" y="14" width="46" height="5"></rect><path d="M58,8a6,6,0,0,0-3-5.188V24h3Z"></path><path d="M7,32v4H19.191a10.567,10.567,0,0,1,0-4Z"></path><rect x="7" y="7" width="46" height="5"></rect><path d="M53,44H34.556a10.879,10.879,0,0,1-9.112,0H7v4H53Z"></path><path d="M7,51a2,2,0,0,0,2,2H51a2,2,0,0,0,2-2V50H7Z"></path><path d="M30,23a10.919,10.919,0,0,1,4.556,1H53V21H7v3H25.444A10.919,10.919,0,0,1,30,23Z"></path><path d="M8,58H52a6.006,6.006,0,0,0,6-6V32H55V51a4,4,0,0,1-4,4H9a4,4,0,0,1-4-4V32H2V52A6.006,6.006,0,0,0,8,58Z"></path><path d="M5,2.812A6,6,0,0,0,2,8V24H5Z"></path><path d="M53,2.09A6,6,0,0,0,52,2H8a6,6,0,0,0-1,.09V5H53Z"></path><path d="M53,32H40.809a10.567,10.567,0,0,1,0,4H53Z"></path><path d="M58,26H37.526a11.005,11.005,0,0,1,2.71,4H58Z"></path><path d="M7,42H22.474a11.005,11.005,0,0,1-2.71-4H7Z"></path><path d="M53,38H40.236a11.005,11.005,0,0,1-2.71,4H53Z"></path><path d="M22.474,26H2v4H19.764A11.005,11.005,0,0,1,22.474,26Z"></path><path d="M30,43a9,9,0,1,0-9-9A9.01,9.01,0,0,0,30,43Zm0-14a4,4,0,0,1,3,6.646V37a3,3,0,0,1-6,0V35.646A4,4,0,0,1,30,29Z"></path><path d="M29,35.23V37a1,1,0,0,0,2,0V35.23a1,1,0,0,1,.343-.753A1.95,1.95,0,0,0,32,33a2,2,0,0,0-4,0,1.95,1.95,0,0,0,.657,1.477A1,1,0,0,1,29,35.23Z"></path></svg>