<svg xmlns="http://www.w3.org/2000/svg" viewBox="0 0 60 60" x="0px" y="0px"><path d="M29.013,22.492l7.155-7.155c-4.114-4.783-3.015-10.526-2.16-13.186A15.553,15.553,0,0,0,20.55,6.874a15.483,15.483,0,0,0-4.724,13.459C18.493,19.474,24.232,18.38,29.013,22.492Z"></path><path d="M46.758,17.5a1.017,1.017,0,0,0-.006-1.423l-2.829-2.83a1.021,1.021,0,0,0-1.425,0l-1.413,1.419,4.248,4.248Z"></path><path d="M5.127,57.707a1.006,1.006,0,0,0,1.42,0L32.585,31.659l-4.244-4.244L2.293,53.453a1,1,0,0,0,0,1.42Z"></path><path d="M44.663,23.831l-7.155,7.155c4.116,4.786,3.015,10.53,2.16,13.189A15.485,15.485,0,0,0,53.126,39.45a15.567,15.567,0,0,0,4.723-13.458C55.178,26.85,49.443,27.942,44.663,23.831Z"></path><path d="M29.461,25.29a1,1,0,0,0,.293.71L34,30.246a1,1,0,0,0,1.42,0l8.5-8.5a1,1,0,0,0,0-1.411l-4.257-4.256a.995.995,0,0,0-1.41,0l-8.5,8.5A.993.993,0,0,0,29.461,25.29Z"></path></svg>