<svg xmlns="http://www.w3.org/2000/svg" viewBox="0 0 60 60" x="0px" y="0px"><path d="M14.053,57.25l.008-.005c.012-.008.014-.015.014-.019l-11.3-11.3c-1.561,2.5-.643,6.437,2.114,9.184S11.575,58.789,14.053,57.25Z"></path><rect x="8.08" y="42.918" width="11.999" height="6.005" transform="translate(-28.347 23.406) rotate(-45)"></rect><path d="M48.018,10.568a1,1,0,1,1,1.414,1.414L24.688,36.726,29.759,41.8,57.681,13.885a1.124,1.124,0,0,0,.312-.892L56.944,3.948a1,1,0,0,0-.882-.891L47,2.005a1.118,1.118,0,0,0-.9.323L18.2,30.241l5.071,5.071Z"></path><path d="M27.556,48.083a5.03,5.03,0,0,0,6.307.669l-22.6-22.624a4.856,4.856,0,0,0-.824,2.755,4.958,4.958,0,0,0,1.478,3.561Z"></path></svg>