<svg xmlns="http://www.w3.org/2000/svg" viewBox="0 0 60 60" x="0px" y="0px"><path d="M39.293,22.122a1,1,0,1,0-1.415,0A1,1,0,0,0,39.293,22.122Z"></path><path d="M44.951,16.464a1,1,0,0,0,.293-.708,1,1,0,0,0-1-1,1,1,0,1,0,.708,1.707Z"></path><path d="M52.73,11.513a1,1,0,0,0,0-1.415L49.9,7.269a1.023,1.023,0,0,0-1.413,0L47.072,8.684l4.244,4.244Z"></path><path d="M34.339,35.562l4.166,4.167a2.068,2.068,0,0,0,1.267.581l6.7.509a2.028,2.028,0,0,0,1.577-.58l9.361-9.362a2.025,2.025,0,0,0,.58-1.57L57.476,22.6a1.969,1.969,0,0,0-.574-1.253l-4.173-4.174Z"></path><path d="M5.122,57.707a1,1,0,0,0,1.415,0L30.1,34.148,25.852,29.9,2.293,53.463a1,1,0,0,0,0,1.415Z"></path><path d="M33.635,27.78a1,1,0,1,0-1.415,0A1,1,0,0,0,33.635,27.78Z"></path><path d="M32.928,34.146,51.315,15.758,44.242,8.685,25.854,27.073Zm9.194-20.511a3,3,0,1,1-.879,2.121A3,3,0,0,1,42.122,13.635Zm-5.658,5.658a3,3,0,1,1,0,4.243A3,3,0,0,1,36.464,19.293Zm-1.415,5.658a3,3,0,1,1-4.243,0A3,3,0,0,1,35.049,24.951Z"></path><path d="M20.278,21.5l4.16,4.16,18.39-18.39L38.661,3.1a1.97,1.97,0,0,0-1.254-.579L30.689,2c-.046,0-.093,0-.14,0a2.017,2.017,0,0,0-1.426.584l-9.362,9.363a2,2,0,0,0-.58,1.574l.51,6.715A2.06,2.06,0,0,0,20.278,21.5Z"></path></svg>