<svg xmlns="http://www.w3.org/2000/svg" viewBox="0 0 60 60" x="0px" y="0px"><path d="M40.09,4.62,36.216,2.194a1.292,1.292,0,0,0-1.773.408L33.154,4.664l6.054,3.792L40.5,6.394A1.289,1.289,0,0,0,40.09,4.62Z"></path><path d="M22.612,19.642l3.872,2.422a18.866,18.866,0,0,1,8.854,14.661,20.679,20.679,0,0,0,15.084-9.562l4.19-6.7L31.25,5.832a1.283,1.283,0,0,0-.688-.2,1.327,1.327,0,0,0-.286.032,1.274,1.274,0,0,0-.8.572L22.2,17.863A1.3,1.3,0,0,0,22.612,19.642Z"></path><path d="M57.392,22.2l-1.085-.679-4.19,6.7a22.648,22.648,0,0,1-16.668,10.5,21.434,21.434,0,0,1-.1,2.365C38.974,40.963,48.071,39.547,54.3,29.6l3.506-5.612A1.3,1.3,0,0,0,57.392,22.2Z"></path><path d="M2.81,48.877l-.611.969A1.29,1.29,0,0,0,2.6,51.621l7.746,4.847a1.318,1.318,0,0,0,1.776-.4l.6-.969a1.3,1.3,0,0,0-.408-1.765L4.569,48.467A1.3,1.3,0,0,0,2.81,48.877Z"></path><path d="M28.255,25.962a17.412,17.412,0,0,0-2.832-2.2L22.4,21.866,6.478,47.3l6.053,3.8Z"></path><path d="M4.054,57.924a.463.463,0,0,0,.372.057l3.036-.961L3.377,54.463l.462,3.15A.461.461,0,0,0,4.054,57.924Z"></path></svg>