<svg xmlns="http://www.w3.org/2000/svg" viewBox="0 0 60 60" x="0px" y="0px"><path d="M7.165,57.26a3.174,3.174,0,0,0,.364-4.413A3.221,3.221,0,0,0,3.1,52.473,3.139,3.139,0,0,0,7.165,57.26Z"></path><polygon points="56.578 14.09 57.998 2.042 15.581 37.868 20.97 44.222 56.578 14.09"></polygon><path d="M19.815,50.129a3.847,3.847,0,0,0,4.413,1.028l-12.3-14.511a3.746,3.746,0,0,0,.292,4.523Z"></path><path d="M23.647,47.38l31.9-27a1.052,1.052,0,0,0,.374-.69L56.235,17,22.263,45.748Z"></path><path d="M10.064,53.446l5.789-4.9-2.717-3.2-5.79,4.9a5.071,5.071,0,0,1,2.718,3.2Z"></path></svg>