<svg xmlns="http://www.w3.org/2000/svg" viewBox="0 0 60 60" x="0px" y="0px"><path d="M7.163,57.112a2.934,2.934,0,0,0,.6-.864,6.136,6.136,0,0,1-4-4.008,2.939,2.939,0,0,0-.868.6,3.023,3.023,0,1,0,4.275,4.275Z"></path><path d="M57.945,2.443a.408.408,0,0,0-.393-.386c-2.614-.247-12.077-.124-24.225,12.021L19.765,27.649a1.621,1.621,0,0,0,.482,1.307L22.094,30.8l4.35-4.35a3.717,3.717,0,0,1,2.083-1.042l5.424-.774L45.094,13.494a1,1,0,0,1,1.414,1.414L35.365,26.051l-.775,5.423a3.706,3.706,0,0,1-1.041,2.083L29.2,37.906l1.848,1.848a1.624,1.624,0,0,0,1.307.48l13.571-13.56C57.709,14.889,58.257,5.8,57.945,2.443Z"></path><path d="M32.609,31.19l.634-4.431-4.432.633a1.688,1.688,0,0,0-.954.476l-4.349,4.349,4.276,4.275,4.351-4.349A1.683,1.683,0,0,0,32.609,31.19Z"></path><path d="M34.992,50.768a4.433,4.433,0,0,0,3.262-2.217,4.228,4.228,0,0,0,.387-3.289,4.619,4.619,0,0,0-5.559-3.12,3.592,3.592,0,0,1-3.45-.974l-10.8-10.8a3.594,3.594,0,0,1-.975-3.45,4.622,4.622,0,0,0-3.118-5.559,4.24,4.24,0,0,0-3.291.387A4.436,4.436,0,0,0,9.232,25.01a4.339,4.339,0,0,0,1.242,3.656l20.862,20.86A4.335,4.335,0,0,0,34.992,50.768ZM14.707,26.707a1,1,0,0,1-1.414,0l-1-1a1,1,0,0,1,1.414-1.414l1,1A1,1,0,0,1,14.707,26.707Zm18.586,20a1,1,0,0,1,1.414-1.414l1,1a1,1,0,1,1-1.414,1.414Z"></path><path d="M13.36,52.762l8.081-10.3-3.9-3.9-10.3,8.08a4.664,4.664,0,0,0-1.79,3.381,4.245,4.245,0,0,0,4.531,4.531A4.667,4.667,0,0,0,13.36,52.762Z"></path></svg>